<?xml version="1.0" encoding="utf-8"?>
<!-- Generator: Adobe Illustrator 24.0.1, SVG Export Plug-In . SVG Version: 6.00 Build 0)  -->
<svg version="1.1" id="Layer_1" xmlns="http://www.w3.org/2000/svg" xmlns:xlink="http://www.w3.org/1999/xlink" x="0px" y="0px"
	 viewBox="0 0 24 24" style="enable-background:new 0 0 24 24;" xml:space="preserve">
<style type="text/css">
	.st0{fill:#E5646E;}
	.st1{fill:#F2F2F6;}
	.st2{fill:#DB4655;}
	.st3{fill:#5055A0;}
	.st4{fill:#3F3F8F;}
	.st5{fill:#FFFFFF;}
	.st6{fill:#E1E1E6;}
</style>
<path class="st0" d="M23.2,4.5H12.4l-12,8v6.7h22.8l0.8-0.4v-1.4l-0.5-0.5v-1.3l0.5-0.4v-2.1l-0.5-0.4v-1.3l0.5-0.4V8.8l-0.5-0.4
	V7.2L24,6.6V5.2C24,4.8,23.7,4.5,23.2,4.5L23.2,4.5z"/>
<path class="st1" d="M12,6.6h12v2.1H12V6.6z"/>
<path class="st1" d="M12,10.9l0.4,2.1H24v-2.1H12z"/>
<path class="st2" d="M0.8,16.5v-3.8L0,13.1v2.1l0.3,0.3v1.4L0,17.4v1.4c0,0.4,0.3,0.8,0.8,0.8h22.5c0.4,0,0.8-0.3,0.8-0.8H3.1
	C1.8,18.8,0.8,17.7,0.8,16.5z"/>
<path class="st3" d="M12.4,4.5H0.8L0.3,5.2l0.5,7.8h11.6V4.5z"/>
<path class="st4" d="M0.8,4.5C0.3,4.5,0,4.8,0,5.2v7.8h0.8V4.5z"/>
<path class="st5" d="M1.6,6.2C1.3,6.2,1.2,6,1.2,5.8c0-0.2,0.2-0.4,0.4-0.4h0c0.2,0,0.4,0.2,0.4,0.4C1.9,6,1.8,6.2,1.6,6.2z"/>
<path class="st5" d="M1.6,9.2C1.3,9.2,1.2,9,1.2,8.8c0-0.2,0.2-0.4,0.4-0.4h0c0.2,0,0.4,0.2,0.4,0.4C1.9,9,1.8,9.2,1.6,9.2z"/>
<path class="st5" d="M1.6,12.2c-0.2,0-0.4-0.2-0.4-0.4c0-0.2,0.2-0.4,0.4-0.4h0c0.2,0,0.4,0.2,0.4,0.4C1.9,12,1.8,12.2,1.6,12.2z"/>
<path class="st1" d="M1.6,7.7c-0.2,0-0.4-0.2-0.4-0.4c0-0.2,0.2-0.4,0.4-0.4h0c0.2,0,0.4,0.2,0.4,0.4C1.9,7.5,1.8,7.7,1.6,7.7z"/>
<path class="st1" d="M1.6,10.7c-0.2,0-0.4-0.2-0.4-0.4c0-0.2,0.2-0.4,0.4-0.4h0c0.2,0,0.4,0.2,0.4,0.4C1.9,10.5,1.8,10.7,1.6,10.7z"
	/>
<path class="st5" d="M10.8,6.2c-0.2,0-0.4-0.2-0.4-0.4c0-0.2,0.2-0.4,0.4-0.4h0c0.2,0,0.4,0.2,0.4,0.4C11.2,6,11.1,6.2,10.8,6.2
	L10.8,6.2z"/>
<path class="st5" d="M10.8,9.2c-0.2,0-0.4-0.2-0.4-0.4c0-0.2,0.2-0.4,0.4-0.4h0c0.2,0,0.4,0.2,0.4,0.4C11.2,9,11.1,9.2,10.8,9.2
	L10.8,9.2z"/>
<path class="st5" d="M10.8,12.2c-0.2,0-0.4-0.2-0.4-0.4c0-0.2,0.2-0.4,0.4-0.4h0c0.2,0,0.4,0.2,0.4,0.4C11.2,12,11.1,12.2,10.8,12.2
	L10.8,12.2z"/>
<path class="st1" d="M10.8,7.7c-0.2,0-0.4-0.2-0.4-0.4c0-0.2,0.2-0.4,0.4-0.4h0c0.2,0,0.4,0.2,0.4,0.4C11.2,7.5,11.1,7.7,10.8,7.7
	L10.8,7.7z"/>
<path class="st1" d="M10.8,10.7c-0.2,0-0.4-0.2-0.4-0.4c0-0.2,0.2-0.4,0.4-0.4h0c0.2,0,0.4,0.2,0.4,0.4
	C11.2,10.5,11.1,10.7,10.8,10.7L10.8,10.7z"/>
<path class="st1" d="M3.9,6.2C3.7,6.2,3.5,6,3.5,5.8c0-0.2,0.2-0.4,0.4-0.4h0c0.2,0,0.4,0.2,0.4,0.4C4.3,6,4.1,6.2,3.9,6.2z"/>
<path class="st1" d="M3.9,9.2C3.7,9.2,3.5,9,3.5,8.8c0-0.2,0.2-0.4,0.4-0.4h0c0.2,0,0.4,0.2,0.4,0.4C4.3,9,4.1,9.2,3.9,9.2z"/>
<path class="st1" d="M3.9,12.2c-0.2,0-0.4-0.2-0.4-0.4c0-0.2,0.2-0.4,0.4-0.4h0c0.2,0,0.4,0.2,0.4,0.4C4.3,12,4.1,12.2,3.9,12.2z"/>
<path class="st5" d="M3.9,7.7c-0.2,0-0.4-0.2-0.4-0.4c0-0.2,0.2-0.4,0.4-0.4h0c0.2,0,0.4,0.2,0.4,0.4C4.3,7.5,4.1,7.7,3.9,7.7z"/>
<path class="st5" d="M3.9,10.7c-0.2,0-0.4-0.2-0.4-0.4c0-0.2,0.2-0.4,0.4-0.4h0c0.2,0,0.4,0.2,0.4,0.4C4.3,10.5,4.1,10.7,3.9,10.7z"
	/>
<path class="st5" d="M2.7,6.9c-0.2,0-0.4-0.2-0.4-0.4c0-0.2,0.2-0.4,0.4-0.4h0c0.2,0,0.4,0.2,0.4,0.4C3.1,6.7,2.9,6.9,2.7,6.9z"/>
<path class="st5" d="M2.7,9.9c-0.2,0-0.4-0.2-0.4-0.4c0-0.2,0.2-0.4,0.4-0.4h0c0.2,0,0.4,0.2,0.4,0.4C3.1,9.8,2.9,9.9,2.7,9.9z"/>
<path class="st1" d="M2.7,8.4C2.5,8.4,2.3,8.2,2.3,8c0-0.2,0.2-0.4,0.4-0.4h0c0.2,0,0.4,0.2,0.4,0.4C3.1,8.2,2.9,8.4,2.7,8.4z"/>
<path class="st1" d="M2.7,11.4c-0.2,0-0.4-0.2-0.4-0.4c0-0.2,0.2-0.4,0.4-0.4h0c0.2,0,0.4,0.2,0.4,0.4C3.1,11.3,2.9,11.4,2.7,11.4z"
	/>
<path class="st5" d="M6.2,6.2C6,6.2,5.8,6,5.8,5.8c0-0.2,0.2-0.4,0.4-0.4h0c0.2,0,0.4,0.2,0.4,0.4C6.6,6,6.4,6.2,6.2,6.2L6.2,6.2z"
	/>
<path class="st5" d="M6.2,9.2C6,9.2,5.8,9,5.8,8.8c0-0.2,0.2-0.4,0.4-0.4h0c0.2,0,0.4,0.2,0.4,0.4C6.6,9,6.4,9.2,6.2,9.2L6.2,9.2z"
	/>
<path class="st5" d="M6.2,12.2c-0.2,0-0.4-0.2-0.4-0.4c0-0.2,0.2-0.4,0.4-0.4h0c0.2,0,0.4,0.2,0.4,0.4C6.6,12,6.4,12.2,6.2,12.2
	L6.2,12.2z"/>
<path class="st1" d="M6.2,7.7C6,7.7,5.8,7.5,5.8,7.3c0-0.2,0.2-0.4,0.4-0.4h0c0.2,0,0.4,0.2,0.4,0.4C6.6,7.5,6.4,7.7,6.2,7.7
	L6.2,7.7z"/>
<path class="st1" d="M6.2,10.7c-0.2,0-0.4-0.2-0.4-0.4c0-0.2,0.2-0.4,0.4-0.4h0c0.2,0,0.4,0.2,0.4,0.4C6.6,10.5,6.4,10.7,6.2,10.7
	L6.2,10.7z"/>
<path class="st1" d="M5,6.9c-0.2,0-0.4-0.2-0.4-0.4c0-0.2,0.2-0.4,0.4-0.4h0c0.2,0,0.4,0.2,0.4,0.4C5.4,6.7,5.3,6.9,5,6.9z"/>
<path class="st1" d="M5,9.9c-0.2,0-0.4-0.2-0.4-0.4c0-0.2,0.2-0.4,0.4-0.4h0c0.2,0,0.4,0.2,0.4,0.4C5.4,9.8,5.3,9.9,5,9.9z"/>
<path class="st5" d="M5,8.4C4.8,8.4,4.6,8.2,4.6,8c0-0.2,0.2-0.4,0.4-0.4h0c0.2,0,0.4,0.2,0.4,0.4C5.4,8.2,5.3,8.4,5,8.4z"/>
<path class="st5" d="M5,11.4c-0.2,0-0.4-0.2-0.4-0.4c0-0.2,0.2-0.4,0.4-0.4h0c0.2,0,0.4,0.2,0.4,0.4C5.4,11.3,5.3,11.4,5,11.4z"/>
<path class="st1" d="M8.5,6.2C8.3,6.2,8.1,6,8.1,5.8c0-0.2,0.2-0.4,0.4-0.4h0c0.2,0,0.4,0.2,0.4,0.4C8.9,6,8.7,6.2,8.5,6.2L8.5,6.2z
	"/>
<path class="st1" d="M8.5,9.2C8.3,9.2,8.1,9,8.1,8.8c0-0.2,0.2-0.4,0.4-0.4h0c0.2,0,0.4,0.2,0.4,0.4C8.9,9,8.7,9.2,8.5,9.2L8.5,9.2z
	"/>
<path class="st1" d="M8.5,12.2c-0.2,0-0.4-0.2-0.4-0.4c0-0.2,0.2-0.4,0.4-0.4h0c0.2,0,0.4,0.2,0.4,0.4C8.9,12,8.7,12.2,8.5,12.2
	L8.5,12.2z"/>
<path class="st5" d="M8.5,7.7c-0.2,0-0.4-0.2-0.4-0.4c0-0.2,0.2-0.4,0.4-0.4h0c0.2,0,0.4,0.2,0.4,0.4C8.9,7.5,8.7,7.7,8.5,7.7
	L8.5,7.7z"/>
<path class="st5" d="M8.5,10.7c-0.2,0-0.4-0.2-0.4-0.4c0-0.2,0.2-0.4,0.4-0.4h0c0.2,0,0.4,0.2,0.4,0.4C8.9,10.5,8.7,10.7,8.5,10.7
	L8.5,10.7z"/>
<path class="st5" d="M7.4,6.9C7.1,6.9,7,6.7,7,6.5c0-0.2,0.2-0.4,0.4-0.4h0c0.2,0,0.4,0.2,0.4,0.4C7.7,6.7,7.6,6.9,7.4,6.9L7.4,6.9z
	"/>
<path class="st5" d="M7.4,9.9C7.1,9.9,7,9.8,7,9.5c0-0.2,0.2-0.4,0.4-0.4h0c0.2,0,0.4,0.2,0.4,0.4C7.7,9.8,7.6,9.9,7.4,9.9L7.4,9.9z
	"/>
<path class="st1" d="M7.4,8.4C7.1,8.4,7,8.2,7,8c0-0.2,0.2-0.4,0.4-0.4h0c0.2,0,0.4,0.2,0.4,0.4C7.7,8.2,7.6,8.4,7.4,8.4L7.4,8.4z"
	/>
<path class="st1" d="M7.4,11.4C7.1,11.4,7,11.3,7,11c0-0.2,0.2-0.4,0.4-0.4h0c0.2,0,0.4,0.2,0.4,0.4C7.7,11.3,7.6,11.4,7.4,11.4
	L7.4,11.4z"/>
<path class="st1" d="M9.7,6.9c-0.2,0-0.4-0.2-0.4-0.4c0-0.2,0.2-0.4,0.4-0.4h0c0.2,0,0.4,0.2,0.4,0.4C10.1,6.7,9.9,6.9,9.7,6.9
	L9.7,6.9z"/>
<path class="st1" d="M9.7,9.9c-0.2,0-0.4-0.2-0.4-0.4c0-0.2,0.2-0.4,0.4-0.4h0c0.2,0,0.4,0.2,0.4,0.4C10.1,9.8,9.9,9.9,9.7,9.9
	L9.7,9.9z"/>
<path class="st5" d="M9.7,8.4C9.5,8.4,9.3,8.2,9.3,8c0-0.2,0.2-0.4,0.4-0.4h0c0.2,0,0.4,0.2,0.4,0.4C10.1,8.2,9.9,8.4,9.7,8.4
	L9.7,8.4z"/>
<path class="st5" d="M9.7,11.4c-0.2,0-0.4-0.2-0.4-0.4c0-0.2,0.2-0.4,0.4-0.4h0c0.2,0,0.4,0.2,0.4,0.4C10.1,11.3,9.9,11.4,9.7,11.4
	L9.7,11.4z"/>
<path class="st1" d="M0.1,16.7l0.8,0.6H24v-2.1H0.8L0.1,16.7z"/>
<path class="st6" d="M0,15.2v2.1h0.9c-0.1-0.3-0.2-0.6-0.2-0.9v-1.3H0L0,15.2z"/>
</svg>
