<svg xmlns="http://www.w3.org/2000/svg" viewBox="54 -4.332 24 25" width="32" height="33.333"
    xmlns:v="https://vecta.io/nano">
    <path
        d="M67.527-3.734A12 12 0 0 0 54.099 6.64c-.843 6.572 3.8 12.585 10.373 13.429A12 12 0 0 0 77.901 9.694 12 12 0 0 0 67.527-3.734zm2.472 7.485c-.223.003-.436.093-.593.25l-4.454 4.453-.307-.307-.643-.643c4.39-4.376 5.181-4.418 5.997-3.753zm-4.864 4.861l4.441-4.44a.62.62 0 0 1 .617-.169c.221.063.389.242.438.467a.62.62 0 0 1-.208.605l-4.7 4.125-.588-.588zm.33.694l-1.1.238c-.027.006-.054-.007-.067-.032s-.009-.054.01-.073l.645-.645.512.512zm-2.803-.459l1.172-1.172.879.878-1.979.426c-.034.009-.069-.007-.085-.039s-.013-.069.013-.093zm-3.646 6.059c-.02-.002-.039-.012-.052-.028s-.019-.035-.017-.055.01-.034.022-.046h.002l.946-.946 1.222 1.222-2.123-.147zm2.425-1.257a.23.23 0 0 0-.117.257l.203.865c.014.054-.011.111-.061.139s-.11.018-.15-.022h-.003l-.934-.934-.294-.296L63.847 9.9l1.82-.393.874.874c-1.255 1.102-2.971 2.201-5.1 3.268zm5.279-3.428h-.002l-.839-.839 4.7-4.125a1.02 1.02 0 0 0 .119-.127c-.148 1.345-2.029 3.245-3.978 5.091zm3.658-6.46l-.003-.002a1.82 1.82 0 0 1-.052-2.516 1.82 1.82 0 0 1 2.511-.168l-1.61 1.613c-.023.022-.036.053-.036.084s.013.063.036.085l1.247 1.247c-.699.347-1.542.209-2.093-.343zm2.578 0c-.083.082-.174.155-.271.218h-.001l-1.207-1.207 1.533-1.533c.661.72.637 1.832-.054 2.522zm-.1-1.544c-.05.036-.071.099-.053.157.072.147.052.324-.053.45-.023.029-.034.066-.03.103s.023.071.053.094c.024.019.053.029.084.03.041 0 .079-.019.106-.05.175-.211.209-.506.087-.751-.021-.03-.054-.051-.09-.057s-.074.002-.104.024z"
        fill="#000000" />
</svg>