<svg xmlns="http://www.w3.org/2000/svg" viewBox="-29.484 -4.332 24 25" width="32" height="33.333"
    xmlns:v="https://vecta.io/nano">
    <path
        d="M-17.484-3.832a12 12 0 0 1 12 12c0 6.627-5.372 12-12 12s-12-5.373-12-12 5.373-12 12-12h0zm-4.912 7.711c-.041.454.015.924-.015 1.383a11.3 11.3 0 0 1-.184 1.367c-.128.648-.531 1.137-1.087 1.545 1.082.704 1.204 1.796 1.276 2.903.036.597.02 1.199.081 1.79.046.459.225.577.699.592.194.005.393 0 .617 0v1.418c-1.402.24-2.56-.158-2.846-1.347-.092-.433-.153-.877-.173-1.326-.031-.474.02-.949-.016-1.423-.102-1.301-.27-1.739-1.514-1.8V7.364c.091-.021.178-.036.27-.046.683-.036.974-.245 1.122-.919a7.83 7.83 0 0 0 .127-1.147c.051-.74.031-1.495.158-2.229.179-1.056.832-1.566 1.919-1.627.306-.016.617 0 .969 0v1.448c-.148.01-.276.031-.408.031-.883-.031-.929.27-.995 1.004h0zm1.699 3.357h-.021c-.51-.026-.948.372-.974.882-.026.516.372.954.882.979h.062a.92.92 0 0 0 .969-.862v-.051c.01-.515-.403-.938-.918-.948h0zm3.198 0c-.495-.015-.908.372-.923.862 0 .03 0 .056.005.086 0 .556.377.913.949.913.561 0 .913-.367.913-.943-.006-.556-.378-.923-.944-.918h0zm3.274 0c-.52-.01-.954.403-.969.923 0 .52.419.938.939.938h.01c.469.082.944-.372.974-.918.026-.505-.433-.943-.954-.943h0zm4.494.076c-.591-.025-.887-.224-1.035-.785a5.66 5.66 0 0 1-.168-1.097c-.041-.683-.036-1.372-.082-2.055-.107-1.622-1.28-2.188-2.984-1.908v1.408l.689.005c.362.005.637.143.673.546.036.367.036.739.071 1.112.072.739.112 1.489.24 2.218.112.602.525 1.051 1.04 1.418-.902.607-1.168 1.475-1.213 2.449l-.077 2.015c-.03.612-.245.811-.862.826-.173.005-.342.02-.535.031v1.443c.362 0 .693.02 1.025 0 1.03-.061 1.653-.561 1.857-1.561.086-.551.137-1.107.153-1.663.035-.51.03-1.025.081-1.53.077-.79.439-1.117 1.23-1.168a1.01 1.01 0 0 0 .219-.051V7.348c-.133-.015-.225-.03-.322-.036h0z"
        fill-rule="evenodd" fill="#000000" />
</svg>