<svg width="420" height="141" viewBox="0 0 420 141" fill="none" xmlns="http://www.w3.org/2000/svg">
<path d="M65.1319 38.4552C64.8008 38.3731 64.387 38.2911 64.056 38.2911C63.5594 38.209 63.0629 38.127 62.5663 38.0449C62.4836 38.0449 62.4008 38.0449 62.318 38.0449C61.9042 37.9628 61.4904 37.9628 60.9939 37.8808C60.9111 37.8808 60.9111 37.8808 60.8284 37.8808C60.3318 37.8808 59.918 37.7987 59.4214 37.7987C53.5455 37.5525 47.6696 38.7014 42.2902 41.2454C40.7178 41.984 39.2281 42.8867 37.8212 43.7894C37.3246 44.1176 36.8281 44.4459 36.3315 44.8562C36.0005 45.1024 35.6694 45.3486 35.3384 45.6769C34.0142 46.7437 32.6901 47.8926 31.5314 49.1236C31.1176 49.5339 30.7866 49.9442 30.4556 50.3545C30.3728 50.4366 30.29 50.5187 30.29 50.6007C29.628 51.4214 28.9659 52.1599 28.3866 53.0627C26.0693 56.3452 24.2486 60.0381 23.1727 63.9772C11.7519 67.3418 3.06211 76.6972 0.662077 88.3503C0.165519 90.484 0 92.6997 0 94.9154C0 110.508 11.2553 123.556 26.1521 126.51C28.3038 126.921 30.5383 127.167 32.7728 127.167C33.0211 127.167 47.6696 127.167 47.6696 127.167H47.7523C57.3525 127.167 65.1319 119.371 65.1319 109.933C65.1319 109.933 65.1319 38.2911 65.1319 38.4552Z" fill="#254699"/>
<path d="M152.195 109.933V23.1911C152.195 19.0059 148.802 15.6412 144.581 15.6412H72.7459C68.5252 15.6412 65.132 19.0059 65.132 23.1911V109.933C65.132 119.37 57.3526 127.167 47.7525 127.167C50.1525 127.167 101.629 127.167 134.733 127.167H134.816C144.416 127.167 152.195 119.37 152.195 109.933Z" fill="url(#paint0_linear)"/>
<path d="M40.3039 127.167C40.8005 127.167 43.7798 127.167 48.4144 127.167C57.6834 126.838 65.1318 119.206 65.1318 109.933C65.1318 109.933 65.1318 38.2911 65.1318 38.4552C64.8008 38.3732 64.387 38.2911 64.0559 38.2911C63.5594 38.209 63.0628 38.127 62.5663 38.0449C62.4835 38.0449 62.4007 38.0449 62.318 38.0449C61.9042 37.9628 61.4904 37.9628 60.9938 37.8808C60.9111 37.8808 60.9111 37.8808 60.8283 37.8808C60.3318 37.8808 59.918 37.7987 59.4214 37.7987C58.8421 37.7987 58.2628 37.7987 57.7662 37.7987V110.015C57.6834 119.371 49.904 127.167 40.3039 127.167Z" fill="#193D84"/>
<path d="M142.098 44.1177H91.6148C90.5389 44.1177 89.7113 43.2971 89.7113 42.2302V40.1786C89.7113 39.1118 90.5389 38.2911 91.6148 38.2911H142.098C143.174 38.2911 144.002 39.1118 144.002 40.1786V42.2302C144.002 43.215 143.174 44.1177 142.098 44.1177Z" fill="#E8DBBA"/>
<path d="M85.2422 44.1177H77.2145C76.1387 44.1177 75.3111 43.297 75.3111 42.2302V35.3368C75.3111 34.27 76.1387 33.4493 77.2145 33.4493H85.2422C86.3181 33.4493 87.1457 34.27 87.1457 35.3368V42.1481C87.1457 43.215 86.3181 44.1177 85.2422 44.1177Z" fill="#E8DBBA"/>
<path d="M142.098 54.9501H77.2144C76.1385 54.9501 75.3109 54.1295 75.3109 53.0626V51.011C75.3109 49.9442 76.1385 49.1235 77.2144 49.1235H142.098C143.174 49.1235 144.001 49.9442 144.001 51.011V53.0626C144.001 54.1295 143.174 54.9501 142.098 54.9501Z" fill="#E8DBBA"/>
<path d="M142.098 65.8648H77.2144C76.1385 65.8648 75.3109 65.0441 75.3109 63.9773V61.9257C75.3109 60.8589 76.1385 60.0382 77.2144 60.0382H142.098C143.174 60.0382 144.001 60.8589 144.001 61.9257V63.9773C144.001 64.9621 143.174 65.8648 142.098 65.8648Z" fill="#E8DBBA"/>
<path d="M142.098 76.6974H77.2144C76.1385 76.6974 75.3109 75.8768 75.3109 74.8099V72.7583C75.3109 71.6915 76.1385 70.8708 77.2144 70.8708H142.098C143.174 70.8708 144.001 71.6915 144.001 72.7583V74.8099C144.001 75.8768 143.174 76.6974 142.098 76.6974Z" fill="#E8DBBA"/>
<path d="M142.098 87.6118H77.2144C76.1385 87.6118 75.3109 86.7912 75.3109 85.7244V83.6728C75.3109 82.6059 76.1385 81.7853 77.2144 81.7853H142.098C143.174 81.7853 144.001 82.6059 144.001 83.6728V85.7244C144.001 86.7091 143.174 87.6118 142.098 87.6118Z" fill="#E8DBBA"/>
<path d="M142.098 98.4442H77.2144C76.1385 98.4442 75.3109 97.6236 75.3109 96.5567V94.5051C75.3109 93.4383 76.1385 92.6177 77.2144 92.6177H142.098C143.174 92.6177 144.001 93.4383 144.001 94.5051V96.5567C144.001 97.6236 143.174 98.4442 142.098 98.4442Z" fill="#E8DBBA"/>
<path d="M117.684 109.359H77.2144C76.1385 109.359 75.3109 108.538 75.3109 107.471V105.42C75.3109 104.353 76.1385 103.532 77.2144 103.532H117.684C118.76 103.532 119.587 104.353 119.587 105.42V107.471C119.587 108.456 118.677 109.359 117.684 109.359Z" fill="#E8DBBA"/>
<path d="M141.685 29.428V15.6412H130.926V31.5617L135.891 29.9204L140.857 31.5617L141.685 30.4128V29.428Z" fill="#EEE2D2"/>
<path d="M141.685 30.4129L136.719 28.7716L131.753 30.4129V14H141.685V30.4129Z" fill="#2649B6"/>
<path d="M131.753 14L130.926 15.6413H131.753V14Z" fill="#193D84"/>
<path d="M202.1 45.9148C202.7 46.5148 203.2 46.8148 203.7 46.8148V47.9148C201.1 47.8148 197.8 47.7148 193.9 47.7148C189.8 47.7148 186.8 47.8148 184.9 47.9148V46.8148C186.3 46.7148 187.2 46.6148 187.8 46.3148C188.4 46.0148 188.7 45.6148 188.7 44.9148C188.7 44.3148 188.5 43.4148 188.1 42.3148L184.9 33.5148H174L173.1 35.9148C171.9 39.0148 171.3 41.3148 171.3 42.9148C171.3 44.4148 171.7 45.4148 172.5 45.9148C173.3 46.4148 174.5 46.7148 176.2 46.8148V47.9148C173.5 47.8148 171.2 47.7148 169.1 47.7148C167.4 47.7148 166 47.8148 165 47.9148V46.8148C165.9 46.6148 166.7 46.1148 167.5 45.1148C168.3 44.1148 169.1 42.6148 169.9 40.5148L181.9 9.71484C183 9.81484 184 9.81484 184.8 9.81484C185.5 9.81484 186.5 9.81484 187.6 9.71484L200.6 43.4148C201.1 44.5148 201.6 45.3148 202.1 45.9148ZM184.5 32.3148L179.6 18.8148L174.4 32.3148H184.5Z" fill="#16324E"/>
<path d="M227.2 79.4149C232.4 83.9149 235 90.3149 235 98.9149C235 104.415 233.7 109.215 231.2 113.315C228.7 117.415 225 120.615 220.2 122.915C215.4 125.215 209.7 126.315 203.1 126.315L198.4 126.215C195.4 126.115 193.2 126.015 191.8 126.015C185.9 126.015 181.5 126.115 178.7 126.215V124.715C180.3 124.615 181.5 124.415 182.2 124.115C182.9 123.815 183.4 123.215 183.7 122.415C184 121.515 184.1 120.215 184.1 118.215V80.7149C184.1 78.8149 184 77.4149 183.7 76.5149C183.4 75.6149 182.9 75.1149 182.2 74.8149C181.5 74.5149 180.3 74.3149 178.7 74.2149V72.7149C181 72.9149 184.4 72.9149 189 72.9149H191.7L195 72.8149C199.2 72.7149 202.2 72.6149 203.8 72.6149C214.3 72.7149 222.1 74.9149 227.2 79.4149ZM201.5 74.6149C200.7 75.0149 200.2 75.6149 199.9 76.5149C199.6 77.4149 199.4 78.8149 199.4 80.6149V118.415C199.4 120.215 199.6 121.615 199.9 122.515C200.2 123.415 200.7 124.015 201.5 124.415C202.3 124.815 203.5 124.915 205.1 124.915C210.1 124.915 213.7 122.715 215.9 118.415C218.1 114.115 219.2 107.715 219.2 99.2149C219.2 90.7149 218.1 84.4149 215.8 80.3149C213.4 76.1149 209.9 74.1149 205 74.1149C203.4 74.1149 202.3 74.2149 201.5 74.6149Z" fill="#16324E"/>
<path d="M256.2 119.215C256.2 121.315 256.5 122.715 257.1 123.515C257.7 124.315 258.8 124.715 260.4 124.715V126.315C255 126.115 251.4 126.015 249.7 126.015C248 126.015 244.2 126.115 238.4 126.315V124.715C240 124.715 241.1 124.315 241.7 123.515C242.3 122.715 242.6 121.315 242.6 119.215V93.2149C242.6 90.9149 242.3 89.2149 241.7 88.1149C241.1 87.0149 240 86.5149 238.4 86.5149V84.9149C240 85.1149 241.6 85.1149 243.1 85.1149C248.3 85.1149 252.7 84.7149 256.2 84.0149V119.215ZM255 68.8149C256.4 69.9149 257.2 71.5149 257.2 73.6149C257.2 75.7149 256.5 77.3149 255 78.4149C253.6 79.5149 251.5 80.1149 248.9 80.1149C246.2 80.1149 244.2 79.5149 242.8 78.4149C241.4 77.3149 240.7 75.7149 240.7 73.6149C240.7 71.5149 241.4 69.9149 242.8 68.8149C244.2 67.7149 246.2 67.1149 248.9 67.1149C251.6 67.1149 253.6 67.7149 255 68.8149Z" fill="#16324E"/>
<path d="M297.9 93.5149C297.1 92.8149 296.7 91.7149 296.7 90.4149C296.7 89.2149 297.1 87.9149 297.8 86.5149C295.6 87.4149 294 88.7149 292.9 90.4149C294.8 92.4149 295.7 94.9149 295.7 98.0149C295.7 102.015 294.2 105.015 291.3 107.015C288.4 109.015 284.4 110.115 279.5 110.115C278.5 110.115 277.8 110.115 277.4 110.015C276.1 110.915 275.4 112.015 275.4 113.215C275.4 114.815 276.3 115.615 278.1 115.615H285.4C290.5 115.615 294.5 116.515 297.4 118.215C300.3 119.915 301.7 122.615 301.7 126.315C301.7 128.915 300.9 131.315 299.2 133.415C297.5 135.515 294.9 137.215 291.4 138.515C287.9 139.815 283.5 140.415 278.3 140.415C273.1 140.415 269 139.815 266.1 138.715C263.1 137.515 261.6 135.915 261.6 133.815C261.6 132.315 262.3 131.015 263.8 129.815C265.3 128.615 267.5 127.615 270.4 126.915L271.2 128.115C269.8 129.815 269.2 131.415 269.2 132.915C269.2 134.915 270.1 136.415 271.9 137.515C273.7 138.615 276.2 139.115 279.4 139.115C282.7 139.115 285.3 138.415 287.1 137.115C288.9 135.815 289.8 134.015 289.8 131.815C289.8 130.215 289.2 129.015 288 128.115C286.8 127.215 284.7 126.715 281.8 126.715H277.7C274.3 126.715 271.7 126.015 269.9 124.715C268.1 123.415 267.2 121.615 267.2 119.415C267.2 117.415 267.9 115.615 269.4 114.115C270.8 112.615 272.9 111.215 275.6 109.915C271.8 109.415 268.8 108.215 266.6 106.215C264.4 104.215 263.3 101.515 263.3 98.1149C263.3 94.1149 264.8 91.1149 267.7 89.1149C270.6 87.1149 274.6 86.0149 279.5 86.0149C284.8 86.0149 288.9 87.1149 291.7 89.3149C292.7 88.0149 293.8 87.0149 295.2 86.2149C296.6 85.4149 298 85.1149 299.5 85.1149C301.2 85.1149 302.4 85.6149 303.3 86.5149C304.2 87.4149 304.7 88.6149 304.7 90.1149C304.7 91.5149 304.3 92.6149 303.6 93.5149C302.8 94.3149 301.9 94.7149 300.7 94.7149C299.6 94.6149 298.7 94.2149 297.9 93.5149ZM281.7 106.315C282.2 104.715 282.5 101.915 282.5 98.0149C282.5 94.1149 282.2 91.4149 281.7 89.7149C281.2 88.1149 280.4 87.2149 279.4 87.2149C278.4 87.2149 277.6 88.0149 277.1 89.7149C276.6 91.3149 276.3 94.1149 276.3 98.0149C276.3 101.915 276.6 104.615 277.1 106.315C277.6 107.915 278.4 108.815 279.4 108.815C280.4 108.715 281.2 107.915 281.7 106.315Z" fill="#16324E"/>
<path d="M324.1 119.215C324.1 121.315 324.4 122.715 325 123.515C325.6 124.315 326.7 124.715 328.3 124.715V126.315C322.9 126.115 319.3 126.015 317.6 126.015C315.9 126.015 312.1 126.115 306.3 126.315V124.715C307.9 124.715 309 124.315 309.6 123.515C310.2 122.715 310.5 121.315 310.5 119.215V93.2149C310.5 90.9149 310.2 89.2149 309.6 88.1149C309 87.0149 307.9 86.5149 306.3 86.5149V84.9149C307.9 85.1149 309.5 85.1149 311 85.1149C316.2 85.1149 320.6 84.7149 324.1 84.0149V119.215ZM322.9 68.8149C324.3 69.9149 325.1 71.5149 325.1 73.6149C325.1 75.7149 324.4 77.3149 322.9 78.4149C321.5 79.5149 319.4 80.1149 316.8 80.1149C314.1 80.1149 312.1 79.5149 310.7 78.4149C309.3 77.3149 308.6 75.7149 308.6 73.6149C308.6 71.5149 309.3 69.9149 310.7 68.8149C312.1 67.7149 314.1 67.1149 316.8 67.1149C319.5 67.1149 321.5 67.7149 322.9 68.8149Z" fill="#16324E"/>
<path d="M252.6 42.5148C251.2 40.6148 248.9 38.9148 245.8 37.6148C242.7 36.2148 238.5 35.4148 233.4 35.2148V35.0148C237.4 34.5148 240.6 33.5148 243.2 32.1148C245.8 30.7148 247.7 29.0148 248.9 27.1148C250.1 25.2148 250.8 23.4148 250.8 21.6148C250.8 18.1148 249.1 15.3148 245.7 13.1148C242.3 10.9148 237.2 9.81484 230.3 9.81484C229.3 9.81484 227.7 9.81484 225.4 9.91484C223.1 10.0148 220.7 10.0148 218.2 10.0148C215.8 10.0148 213.4 10.0148 211 9.91484C208.6 9.91484 206.7 9.81484 205.2 9.71484V11.2148C206.7 11.3148 207.9 11.4148 208.6 11.8148C209.4 12.1148 209.9 12.7148 210.1 13.6148C210.4 14.5148 210.5 15.9148 210.5 17.7148V55.1148C210.5 56.9148 210.4 58.3148 210.1 59.2148C210 60.1148 209.5 60.8148 208.7 61.1148C207.9 61.4148 206.8 61.6148 205.2 61.7148V63.2148C206.7 63.1148 208.6 63.0148 211 63.0148C213.4 63.0148 215.8 63.0148 218.4 63.0148C221.7 63.0148 224.5 63.0148 226.8 63.1148C229.1 63.2148 230.9 63.2148 232.1 63.2148C239.1 63.2148 244.7 62.0148 248.7 59.7148C252.7 57.3148 254.7 53.6148 254.7 48.6148C254.7 46.5148 254 44.5148 252.6 42.5148ZM226.7 12.6148C227.2 11.7148 228.3 11.3148 230 11.3148C231.9 11.3148 233.3 12.2148 234.1 14.1148C234.9 16.0148 235.3 18.8148 235.3 22.5148C235.3 24.7148 235.1 26.7148 234.7 28.6148C234.3 30.5148 233.6 32.0148 232.5 33.1148C231.4 34.2148 229.9 34.8148 228 34.8148H226V17.8148C225.9 15.2148 226.2 13.4148 226.7 12.6148ZM237 58.0148C235.7 60.3148 233.7 61.4148 230.9 61.4148C228.9 61.4148 227.6 61.0148 226.9 60.2148C226.3 59.4148 226 57.7148 226 55.1148V36.1148H227C231.3 36.1148 234.3 37.2148 236.2 39.3148C238.1 41.4148 239 44.4148 239 48.3148C238.9 52.5148 238.3 55.7148 237 58.0148Z" fill="#16324E"/>
<path d="M275.6 23.2149V56.2149C275.6 58.3149 275.9 59.7149 276.5 60.5149C277.1 61.3149 278.2 61.6149 279.8 61.6149V63.2149C278.8 63.2149 277.3 63.1149 275.3 63.0149C273.3 62.9149 271.2 62.9149 269.1 62.9149C267 62.9149 264.9 62.9149 262.7 63.0149C260.5 63.1149 258.9 63.1149 257.8 63.2149V61.6149C259.4 61.6149 260.5 61.2149 261.1 60.5149C261.7 59.7149 262 58.3149 262 56.2149V32.2149C262 29.9149 261.7 28.3149 261.1 27.2149C260.5 26.1149 259.4 25.6149 257.8 25.6149V24.0149C259.4 24.2149 261 24.2149 262.5 24.2149C265 24.2149 267.4 24.1149 269.5 23.9149C271.7 23.8149 273.8 23.6149 275.6 23.2149ZM277.3 1.3149C278.3 2.1149 278.8 3.2149 278.8 4.5149C278.8 5.9149 278.4 7.1149 277.6 8.1149C276.8 9.1149 275.8 10.0149 274.6 10.7149C273.4 11.4149 272 12.3149 270.3 13.3149C268.6 14.3149 266.6 15.9149 264.3 17.9149L263.5 17.2149C265 14.3149 266 12.0149 266.5 10.1149C267.1 8.2149 267.5 6.6149 267.9 5.3149C268.3 4.0149 269 2.8149 269.9 1.8149C270.7 0.814901 271.8 0.314901 273.3 0.0149015C274.8 -0.0850985 276.1 0.314901 277.3 1.3149Z" fill="#16324E"/>
<path d="M320.3 27.6148C317.8 24.5148 314.7 23.0148 311 23.0148C308.4 23.0148 306.2 23.5148 304.2 24.4148C302.2 25.3148 300.7 26.8148 299.5 28.7148V4.21484C297.6 4.61484 295.6 4.81484 293.4 5.01484C291.2 5.21484 288.9 5.31484 286.4 5.31484C284.9 5.31484 283.3 5.21484 281.7 5.11484V6.71484C283.3 6.71484 284.4 7.21484 285 8.31484C285.6 9.41484 285.9 11.1148 285.9 13.3148V59.5148C285.9 60.2148 285.9 60.9148 285.8 61.6148C285.7 62.3148 285.6 63.0148 285.3 63.7148L286.4 64.5148C287.2 63.8148 288.2 63.2148 289.6 62.8148C291 62.4148 292.6 62.2148 294.3 62.3148C296 62.4148 297.7 62.7148 299.4 63.4148C300.2 63.7148 300.9 63.9148 301.7 64.0148C303.1 64.2148 304.7 64.3148 306.4 64.3148C309.6 64.3148 312.5 63.6148 315.1 62.3148C317.8 61.0148 319.9 58.7148 321.5 55.4148C323.1 52.1148 323.9 47.7148 323.9 42.0148C324 35.5148 322.8 30.7148 320.3 27.6148ZM308.2 58.0148C307.1 61.2148 305.3 62.8148 303 62.8148C302.3 62.8148 301.5 62.7148 300.7 62.4148C300.2 62.3148 299.8 62.1148 299.4 61.8148V32.3148C299.4 30.7148 300 29.4148 301.1 28.4148C302.2 27.4148 303.5 26.9148 304.9 26.9148C305.9 26.9148 306.7 27.4148 307.5 28.3148C308.3 29.2148 308.9 30.9148 309.3 33.3148C309.7 35.7148 310 39.2148 310 43.6148C309.9 50.0148 309.4 54.8148 308.2 58.0148Z" fill="#16324E"/>
<path d="M343.8 4.21484V56.2148C343.8 58.3148 344.1 59.7148 344.7 60.5148C345.3 61.3148 346.4 61.6148 348 61.6148V63.2148C347 63.2148 345.5 63.1148 343.5 63.0148C341.5 62.9148 339.4 62.9148 337.3 62.9148C335.2 62.9148 333.1 62.9148 330.9 63.0148C328.7 63.1148 327.1 63.1148 326 63.2148V61.6148C327.6 61.6148 328.7 61.2148 329.3 60.5148C329.9 59.7148 330.2 58.3148 330.2 56.2148V13.2148C330.2 10.9148 329.9 9.31484 329.3 8.21484C328.7 7.11484 327.6 6.61484 326 6.61484V5.01484C327.6 5.21484 329.2 5.21484 330.7 5.21484C333.2 5.21484 335.6 5.11484 337.8 4.91484C340 4.81484 342 4.51484 343.8 4.21484Z" fill="#16324E"/>
<path d="M368.8 23.2148V56.2148C368.8 58.3148 369.1 59.7148 369.7 60.5148C370.3 61.3148 371.4 61.6148 373 61.6148V63.2148C372 63.2148 370.5 63.1148 368.5 63.0148C366.5 62.9148 364.4 62.9148 362.3 62.9148C360.2 62.9148 358.1 62.9148 355.9 63.0148C353.7 63.1148 352.1 63.1148 351 63.2148V61.6148C352.6 61.6148 353.7 61.2148 354.3 60.5148C354.9 59.7148 355.2 58.3148 355.2 56.2148V32.2148C355.2 29.9148 354.9 28.3148 354.3 27.2148C353.7 26.1148 352.6 25.6148 351 25.6148V24.0148C352.6 24.2148 354.2 24.2148 355.7 24.2148C358.2 24.2148 360.6 24.1148 362.7 23.9148C364.9 23.8148 366.9 23.6148 368.8 23.2148ZM361.6 4.21484C364.2 4.21484 366.2 4.71484 367.7 5.81484C369.1 6.91484 369.8 8.51484 369.8 10.7148C369.8 12.9148 369.1 14.5148 367.7 15.6148C366.3 16.7148 364.2 17.2148 361.6 17.2148C359 17.2148 357 16.7148 355.5 15.6148C354 14.5148 353.4 12.9148 353.4 10.7148C353.4 8.51484 354.1 6.91484 355.5 5.81484C356.9 4.71484 358.9 4.21484 361.6 4.21484Z" fill="#16324E"/>
<path d="M385.7 63.7149C382.3 63.7149 379.8 62.8149 378.3 60.9149C376.8 59.1149 376 56.9149 376 54.5149C376 52.3149 376.5 50.6149 377.4 49.2149C378.4 47.8149 379.6 46.7149 381.1 45.9149C382.6 45.0149 384.3 44.3149 386 43.8149C387.7 43.2149 389.3 42.7149 390.9 42.1149C392.4 41.5149 393.7 40.9149 394.6 40.2149C395.6 39.5149 396 38.5149 396 37.4149V30.7149C396 29.9149 395.9 29.0149 395.6 28.1149C395.3 27.1149 394.8 26.3149 394.1 25.6149C393.3 24.9149 392.2 24.5149 390.7 24.5149C389.9 24.5149 389.1 24.6149 388.4 24.8149C387.7 25.0149 387 25.3149 386.5 25.7149C388.3 26.4149 389.5 27.3149 390.3 28.5149C391.1 29.7149 391.5 31.0149 391.5 32.4149C391.5 34.4149 390.8 36.0149 389.4 37.2149C388 38.4149 386.3 38.9149 384.4 38.9149C382.4 38.9149 380.8 38.3149 379.7 37.0149C378.6 35.7149 378 34.2149 378 32.3149C378 30.7149 378.4 29.4149 379.2 28.3149C380 27.2149 381.1 26.2149 382.7 25.3149C384.2 24.4149 386 23.8149 388.1 23.5149C390.2 23.2149 392.4 22.9149 394.7 22.9149C397.2 22.9149 399.5 23.1149 401.6 23.6149C403.7 24.1149 405.5 25.1149 407 26.7149C408.1 27.8149 408.7 29.2149 409 30.8149C409.3 32.5149 409.5 34.6149 409.5 37.2149V57.4149C409.5 58.7149 409.6 59.5149 409.8 60.0149C410 60.5149 410.3 60.7149 410.7 60.7149C411.1 60.7149 411.5 60.6149 411.9 60.3149C412.3 60.0149 412.6 59.8149 413 59.5149L413.8 60.8149C412.7 61.8149 411.3 62.5149 409.7 62.9149C408.1 63.4149 406.3 63.6149 404.5 63.6149C401.2 63.6149 399.1 63.0149 398 61.9149C396.9 60.7149 396.3 59.4149 396.2 57.9149C395.2 59.6149 393.8 60.9149 392.1 62.0149C390.5 63.2149 388.3 63.7149 385.7 63.7149ZM393.2 57.7149C393.8 57.7149 394.2 57.6149 394.7 57.4149C395.1 57.2149 395.6 56.9149 396 56.4149V40.5149C395.5 41.4149 394.9 42.2149 394.1 42.9149C393.3 43.6149 392.6 44.3149 391.9 45.1149C391.2 45.9149 390.6 46.8149 390.1 48.0149C389.6 49.1149 389.4 50.6149 389.4 52.3149C389.4 54.3149 389.8 55.7149 390.5 56.5149C391.2 57.3149 392.1 57.7149 393.2 57.7149Z" fill="#16324E"/>
<path d="M348.6 87.0149H356V88.5149H348.6V119.915C348.6 120.915 348.8 121.615 349.1 122.015C349.5 122.415 350 122.615 350.8 122.615C351.4 122.615 352.1 122.415 352.8 122.115C353.6 121.715 354.2 121.215 354.8 120.415L355.9 121.315C353.6 125.315 350 127.315 345.2 127.315C341.7 127.315 339.1 126.415 337.4 124.715C336.3 123.615 335.7 122.315 335.3 120.815C335 119.215 334.8 117.015 334.8 114.215V88.5149H329.1V87.0149H334.8V77.1149C337.5 77.1149 340 76.8149 342.2 76.3149C344.4 75.8149 346.5 74.9149 348.4 73.8149V87.0149H348.6Z" fill="#16324E"/>
<path d="M360.1 124.115C358.5 122.415 357.6 120.215 357.6 117.615C357.6 115.315 358.2 113.515 359.4 112.015C360.6 110.515 362 109.415 363.6 108.615C365.2 107.815 367.3 107.015 369.9 106.115C372.6 105.215 374.6 104.415 375.9 103.615C377.2 102.815 377.8 101.815 377.8 100.415V93.7149C377.8 92.1149 377.4 90.7149 376.6 89.4149C375.8 88.1149 374.4 87.5149 372.5 87.5149C370.9 87.5149 369.5 87.9149 368.3 88.8149C370 89.4149 371.3 90.3149 372.1 91.5149C372.9 92.7149 373.3 94.0149 373.3 95.5149C373.3 97.5149 372.6 99.0149 371.2 100.215C369.8 101.415 368.1 102.015 366.2 102.015C364.2 102.015 362.7 101.415 361.6 100.115C360.5 98.9149 359.9 97.3149 359.9 95.4149C359.9 93.9149 360.3 92.6149 361 91.5149C361.8 90.4149 362.9 89.4149 364.5 88.5149C367.3 86.9149 371.3 86.1149 376.6 86.1149C379.4 86.1149 381.8 86.4149 383.8 86.9149C385.8 87.4149 387.5 88.4149 388.9 89.9149C389.9 91.0149 390.6 92.3149 390.9 93.9149C391.2 95.5149 391.4 97.7149 391.4 100.515V120.815C391.4 122.115 391.5 122.915 391.7 123.415C391.9 123.915 392.2 124.115 392.6 124.115C393 124.115 393.3 124.015 393.7 123.815C394.1 123.615 394.5 123.315 394.8 123.015L395.6 124.315C393.4 126.215 390.3 127.115 386.3 127.115C383.3 127.115 381.2 126.615 380 125.615C378.8 124.615 378.1 123.215 378 121.415C375.6 125.215 372.1 127.115 367.4 127.115C364.2 126.715 361.7 125.915 360.1 124.115ZM377.7 119.415V103.515C377.2 104.315 376.4 105.215 375.2 106.415C373.8 107.715 372.8 109.015 372.1 110.215C371.4 111.415 371 113.115 371 115.215C371 118.815 372.3 120.615 374.8 120.615C376 120.715 376.9 120.315 377.7 119.415Z" fill="#16324E"/>
<path d="M415.2 119.215C415.2 121.315 415.5 122.715 416.1 123.515C416.7 124.315 417.8 124.715 419.4 124.715V126.315C414 126.115 410.4 126.015 408.7 126.015C407 126.015 403.2 126.115 397.4 126.315V124.715C399 124.715 400.1 124.315 400.7 123.515C401.3 122.715 401.6 121.315 401.6 119.215V76.2149C401.6 73.9149 401.3 72.2149 400.7 71.1149C400.1 70.0149 399 69.5149 397.4 69.5149V67.9149C399 68.1149 400.5 68.1149 402.1 68.1149C407.3 68.1149 411.7 67.7149 415.2 67.0149V119.215Z" fill="#16324E"/>
<defs>
<linearGradient id="paint0_linear" x1="148.683" y1="15.1666" x2="62.4264" y2="127.457" gradientUnits="userSpaceOnUse">
<stop stop-color="#FCF8E3"/>
<stop offset="0.878437" stop-color="#FCE9D2"/>
</linearGradient>
</defs>
</svg>
