<svg width="432" height="140" viewBox="0 0 432 140" fill="none" xmlns="http://www.w3.org/2000/svg">
<path d="M215.787 46.9925C216.36 47.5629 216.837 47.8481 217.315 47.8481V48.8939C214.832 48.7988 211.68 48.7038 207.955 48.7038C204.04 48.7038 201.175 48.7988 199.36 48.8939V47.8481C200.697 47.753 201.557 47.658 202.13 47.3728C202.703 47.0875 202.989 46.7072 202.989 46.0417C202.989 45.4713 202.798 44.6156 202.416 43.5698L199.36 35.2035H188.855L187.995 37.4852C186.849 40.4325 186.276 42.6191 186.276 44.1403C186.276 45.5664 186.658 46.5171 187.422 46.9925C188.186 47.4678 189.332 47.753 190.956 47.8481V48.8939C188.377 48.7988 186.181 48.7038 184.175 48.7038C182.552 48.7038 181.215 48.7988 180.26 48.8939V47.8481C181.119 47.753 181.883 47.1826 182.647 46.2319C183.411 45.2812 184.175 43.8551 184.939 41.8585L196.4 12.5762C197.45 12.6712 198.405 12.6712 199.169 12.6712C199.838 12.6712 200.793 12.6712 201.843 12.5762L214.259 44.6156C214.736 45.6614 215.214 46.422 215.787 46.9925ZM198.883 34.0626L194.203 21.2278L189.237 34.0626H198.883Z" fill="#16324E"/>
<path d="M259.049 39.0063C262.105 40.2423 264.302 41.7635 265.734 43.6649C267.167 45.4713 267.835 47.4678 267.835 49.5594C267.835 54.218 265.925 57.7356 262.201 60.0174C258.476 62.2991 253.128 63.44 246.252 63.44C244.819 63.44 243.673 63.44 242.718 63.3449C239.471 63.2499 236.224 63.1548 233.168 63.1548C227.533 63.1548 223.331 63.2499 220.657 63.3449V61.9188C222.185 61.8238 223.331 61.6336 224 61.3484C224.668 61.0632 225.146 60.4927 225.432 59.7322C225.719 58.8765 225.814 57.6406 225.814 55.7391V20.182C225.814 18.3756 225.719 17.0446 225.432 16.1889C225.146 15.3333 224.668 14.8579 224 14.5727C223.331 14.2875 222.185 14.0973 220.657 14.0023V12.5762C223.427 12.7663 227.533 12.7663 233.073 12.7663L241.381 12.6712C242.336 12.6712 243.482 12.5762 244.724 12.5762C251.027 12.5762 255.898 13.622 259.24 15.6185C262.583 17.615 264.206 20.3721 264.206 23.8898C264.206 25.6962 263.538 27.4075 262.296 29.2139C261.055 31.0203 259.145 32.5414 256.662 33.9675C254.179 35.2985 251.122 36.1542 247.493 36.6295V36.8197C252.173 37.0098 255.993 37.7704 259.049 39.0063ZM241.668 14.4776C241.095 14.8579 240.713 15.4283 240.522 16.284C240.331 17.1397 240.235 18.4707 240.235 20.182V36.4394H242.145C244.724 36.4394 246.538 35.3936 247.589 33.2069C248.639 31.1153 249.117 28.2631 249.117 24.6504C249.117 21.0376 248.735 18.2805 247.971 16.5692C247.207 14.8579 245.87 13.9072 244.151 13.9072C243.1 14.0023 242.241 14.1924 241.668 14.4776ZM252.651 49.1791C252.651 45.3762 251.696 42.524 249.881 40.5275C248.066 38.531 245.201 37.5803 241.19 37.5803H240.14V55.7391C240.14 57.4504 240.235 58.6864 240.522 59.542C240.808 60.3977 241.19 60.873 241.859 61.2533C242.527 61.5385 243.482 61.7287 244.819 61.7287C250.072 61.7287 252.651 57.5455 252.651 49.1791Z" fill="#16324E"/>
<path d="M287.127 56.7851C287.127 58.7816 287.414 60.1127 287.987 60.8732C288.56 61.6338 289.61 62.0141 291.138 62.0141V63.5353C285.981 63.3451 282.543 63.2501 280.92 63.2501C279.296 63.2501 275.667 63.3451 270.128 63.5353V62.0141C271.656 62.0141 272.706 61.6338 273.28 60.8732C273.853 60.1127 274.139 58.7816 274.139 56.7851V15.9039C274.139 13.7172 273.853 12.101 273.28 11.0552C272.706 10.0094 271.656 9.53404 270.128 9.53404V8.01288C271.656 8.20303 273.088 8.20302 274.617 8.20302C279.583 8.20302 283.785 7.82273 287.127 7.15723V56.7851Z" fill="#16324E"/>
<path d="M311.003 56.785C311.003 58.7815 311.29 60.1126 311.863 60.8731C312.436 61.6337 313.486 62.014 315.014 62.014V63.5352C309.857 63.345 306.419 63.25 304.796 63.25C303.172 63.25 299.543 63.345 294.004 63.5352V62.014C295.532 62.014 296.582 61.6337 297.155 60.8731C297.728 60.1126 298.015 58.7815 298.015 56.785V33.9676C298.015 31.7809 297.728 30.1647 297.155 29.1189C296.582 28.0731 295.532 27.5977 294.004 27.5977V26.0766C295.532 26.2667 297.06 26.2667 298.493 26.2667C303.459 26.2667 307.661 25.8864 311.003 25.2209V56.785ZM314.059 7.72755C314.059 8.96349 313.677 10.1044 312.818 11.0551C312.34 11.6255 311.863 12.1009 311.194 12.5763C310.526 13.0516 309.953 13.527 309.475 13.8122C308.902 14.1925 308.52 14.3826 308.234 14.5728C306.706 15.5235 305.369 16.3792 304.127 17.2348C302.981 18.0905 301.644 19.0412 300.116 20.2771L299.352 19.6116C300.212 17.9003 300.88 16.3792 301.358 15.1432C301.835 13.9073 302.313 12.291 302.981 10.3896C303.459 8.96349 303.841 7.82262 304.127 7.06204C304.509 6.30146 304.891 5.54088 305.464 4.87537C305.942 4.30493 306.419 3.92464 307.183 3.63943C307.852 3.35421 308.616 3.16406 309.38 3.16406C310.621 3.16406 311.672 3.54435 312.531 4.30493C313.582 5.25566 314.059 6.30146 314.059 7.72755Z" fill="#16324E"/>
<path d="M353.788 29.6894C356.08 32.7318 357.226 37.2002 357.226 43.0947C357.226 50.7005 355.698 56.1196 352.642 59.4471C349.586 62.7747 345.48 64.3909 340.418 64.3909C338.89 64.3909 337.553 64.2958 336.598 64.2008C335.547 64.1057 334.592 63.8205 333.733 63.4402C331.918 62.6796 330.104 62.3944 328.194 62.3944C326.761 62.3944 325.424 62.5845 324.183 62.9648C322.941 63.3451 321.986 63.8205 321.318 64.486L320.267 63.7254C320.649 62.6796 320.745 61.4437 320.745 59.7324V15.8088C320.745 13.6222 320.458 12.0059 319.885 10.9601C319.312 9.91433 318.261 9.43897 316.733 9.43897V8.01288C318.261 8.20303 319.694 8.20302 321.222 8.20302C326.188 8.20302 330.39 7.82273 333.733 7.15723V30.45C335.929 26.8373 339.559 25.0309 344.716 25.0309C348.44 25.1259 351.496 26.6471 353.788 29.6894ZM343.761 44.806C343.761 38.9115 343.283 34.8233 342.424 32.4465C341.564 30.0697 340.418 28.9288 338.89 28.9288C337.457 28.9288 336.311 29.4042 335.261 30.3549C334.21 31.3057 333.733 32.5416 333.733 34.0628V62.1092C334.879 62.6796 335.929 62.9648 337.075 62.9648C341.564 62.9648 343.761 56.9753 343.761 44.806Z" fill="#16324E"/>
<path d="M378.044 56.7851C378.044 58.7816 378.331 60.1127 378.904 60.8732C379.477 61.6338 380.527 62.0141 382.055 62.0141V63.5353C376.898 63.3451 373.46 63.2501 371.837 63.2501C370.213 63.2501 366.584 63.3451 361.045 63.5353V62.0141C362.573 62.0141 363.624 61.6338 364.197 60.8732C364.77 60.1127 365.056 58.7816 365.056 56.7851V33.9677C365.056 31.781 364.77 30.1648 364.197 29.119C363.624 28.0732 362.573 27.5978 361.045 27.5978V26.0767C362.573 26.2668 364.101 26.2668 365.534 26.2668C370.5 26.2668 374.702 25.8865 378.044 25.221V56.7851ZM376.898 8.77346C378.235 9.81926 378.999 11.3404 378.999 13.3369C378.999 15.3335 378.331 16.8546 376.898 17.9004C375.561 18.9462 373.556 19.5167 371.073 19.5167C368.494 19.5167 366.584 18.9462 365.247 17.9004C363.91 16.8546 363.241 15.3335 363.241 13.3369C363.241 11.3404 363.91 9.81926 365.247 8.77346C366.584 7.72766 368.494 7.15723 371.073 7.15723C373.651 7.2523 375.561 7.72766 376.898 8.77346Z" fill="#16324E"/>
<path d="M387.214 61.444C385.686 59.8278 384.826 57.7362 384.826 55.2643C384.826 53.0776 385.399 51.3663 386.545 49.9402C387.691 48.5141 389.028 47.4683 390.556 46.7077C392.084 45.9472 394.09 45.1866 396.573 44.3309C399.151 43.4753 401.062 42.7147 402.303 41.9541C403.545 41.1935 404.118 40.2428 404.118 38.9118V32.5419C404.118 31.0208 403.736 29.6897 402.972 28.4538C402.208 27.2179 400.871 26.6474 399.056 26.6474C397.528 26.6474 396.191 27.0277 395.045 27.8834C396.668 28.4538 397.91 29.3095 398.674 30.4503C399.438 31.5912 399.82 32.8271 399.82 34.2532C399.82 36.1547 399.151 37.5808 397.814 38.7216C396.477 39.8625 394.854 40.4329 393.039 40.4329C391.129 40.4329 389.697 39.8625 388.646 38.6266C387.596 37.4857 387.023 35.9645 387.023 34.1582C387.023 32.7321 387.405 31.4961 388.073 30.4503C388.837 29.4045 389.888 28.4538 391.416 27.5981C394.09 26.077 397.91 25.3164 402.972 25.3164C405.646 25.3164 407.938 25.6016 409.848 26.077C411.758 26.5523 413.381 27.5031 414.718 28.9292C415.673 29.975 416.342 31.2109 416.628 32.7321C416.915 34.2532 417.106 36.3448 417.106 39.0069V58.3066C417.106 59.5425 417.201 60.3031 417.392 60.7785C417.583 61.2538 417.87 61.444 418.252 61.444C418.634 61.444 418.92 61.3489 419.302 61.1588C419.684 60.9686 420.066 60.6834 420.353 60.3982L421.117 61.6341C419.016 63.4405 416.055 64.2962 412.235 64.2962C409.37 64.2962 407.365 63.8208 406.219 62.8701C405.073 61.9194 404.404 60.5883 404.309 58.877C402.017 62.4898 398.674 64.2962 394.185 64.2962C391.129 63.9159 388.837 63.0602 387.214 61.444ZM404.022 56.9756V41.764C403.545 42.5245 402.781 43.3802 401.635 44.5211C400.298 45.757 399.343 46.993 398.674 48.1338C398.005 49.2747 397.623 50.8909 397.623 52.8875C397.623 56.3101 398.865 58.0214 401.253 58.0214C402.399 58.2115 403.258 57.7362 404.022 56.9756Z" fill="#16324E"/>
<path d="M241.667 78.8419C246.633 83.1202 249.116 89.2048 249.116 97.3811C249.116 102.61 247.875 107.174 245.487 111.072C243.1 114.969 239.566 118.012 234.982 120.198C230.398 122.385 224.954 123.431 218.651 123.431L214.163 123.336C211.298 123.241 209.196 123.146 207.859 123.146C202.225 123.146 198.023 123.241 195.349 123.336V121.91C196.877 121.815 198.023 121.625 198.691 121.339C199.36 121.054 199.837 120.484 200.124 119.723C200.41 118.867 200.506 117.632 200.506 115.73V80.0778C200.506 78.2715 200.41 76.9404 200.124 76.0848C199.837 75.2291 199.36 74.7538 198.691 74.4686C198.023 74.1833 196.877 73.9932 195.349 73.8981V72.472C197.545 72.6622 200.792 72.6622 205.185 72.6622H207.764L210.916 72.5671C214.927 72.472 217.792 72.377 219.32 72.377C229.252 72.472 236.701 74.5636 241.667 78.8419ZM217.028 74.2784C216.264 74.6587 215.786 75.2291 215.5 76.0848C215.213 76.9404 215.022 78.2715 215.022 79.9828V115.92C215.022 117.632 215.213 118.963 215.5 119.818C215.786 120.674 216.264 121.244 217.028 121.625C217.792 122.005 218.938 122.1 220.466 122.1C225.241 122.1 228.679 120.008 230.78 115.92C232.881 111.832 233.932 105.747 233.932 97.6663C233.932 89.5851 232.881 83.5955 230.684 79.6975C228.488 75.7996 225.05 73.803 220.37 73.803C218.938 73.803 217.792 73.9932 217.028 74.2784Z" fill="#16324E"/>
<path d="M270.223 116.68C270.223 118.677 270.51 120.008 271.083 120.768C271.656 121.529 272.706 121.909 274.234 121.909V123.43C269.077 123.24 265.639 123.145 264.015 123.145C262.392 123.145 258.763 123.24 253.224 123.43V121.909C254.752 121.909 255.802 121.529 256.375 120.768C256.948 120.008 257.235 118.677 257.235 116.68V93.8629C257.235 91.6762 256.948 90.06 256.375 89.0142C255.802 87.9684 254.752 87.493 253.224 87.493V85.9718C254.752 86.162 256.28 86.162 257.712 86.162C262.678 86.162 266.881 85.7817 270.223 85.1162V116.68ZM269.173 68.7637C270.51 69.8095 271.274 71.3307 271.274 73.3272C271.274 75.3237 270.605 76.8449 269.173 77.8907C267.836 78.9365 265.83 79.5069 263.347 79.5069C260.768 79.5069 258.858 78.9365 257.521 77.8907C256.184 76.8449 255.516 75.3237 255.516 73.3272C255.516 71.3307 256.184 69.8095 257.521 68.7637C258.858 67.7179 260.768 67.1475 263.347 67.1475C265.83 67.1475 267.74 67.7179 269.173 68.7637Z" fill="#16324E"/>
<path d="M310.047 92.2468C309.283 91.5813 308.901 90.5355 308.901 89.2996C308.901 88.1587 309.283 86.9228 309.952 85.5918C307.851 86.4474 306.323 87.6834 305.272 89.2996C307.087 91.201 307.946 93.5779 307.946 96.5251C307.946 100.328 306.514 103.18 303.744 105.082C300.975 106.983 297.154 108.029 292.475 108.029C291.52 108.029 290.851 108.029 290.469 107.934C289.228 108.789 288.559 109.835 288.559 110.976C288.559 112.497 289.419 113.258 291.138 113.258H298.109C302.98 113.258 306.8 114.114 309.57 115.73C312.339 117.346 313.676 119.913 313.676 123.431C313.676 125.903 312.912 128.184 311.289 130.181C309.665 132.177 307.182 133.794 303.84 135.029C300.497 136.265 296.295 136.836 291.329 136.836C286.363 136.836 282.447 136.265 279.677 135.22C276.812 134.079 275.38 132.558 275.38 130.561C275.38 129.135 276.048 127.899 277.481 126.758C278.913 125.617 281.015 124.667 283.784 124.001L284.548 125.142C283.211 126.758 282.638 128.279 282.638 129.705C282.638 131.607 283.498 133.033 285.217 134.079C286.936 135.125 289.323 135.6 292.379 135.6C295.531 135.6 298.014 134.934 299.733 133.698C301.452 132.463 302.312 130.751 302.312 128.66C302.312 127.138 301.739 125.998 300.593 125.142C299.446 124.286 297.441 123.811 294.671 123.811H290.756C287.509 123.811 285.026 123.145 283.307 121.909C281.588 120.674 280.728 118.962 280.728 116.871C280.728 114.969 281.397 113.258 282.829 111.832C284.166 110.406 286.172 109.075 288.75 107.839C285.121 107.363 282.256 106.223 280.155 104.321C278.054 102.42 277.003 99.8526 277.003 96.6202C277.003 92.8173 278.436 89.9651 281.206 88.0636C283.975 86.1622 287.795 85.1164 292.475 85.1164C297.536 85.1164 301.452 86.1622 304.126 88.2538C305.081 87.0179 306.132 86.0671 307.469 85.3065C308.806 84.546 310.143 84.2607 311.575 84.2607C313.199 84.2607 314.345 84.7361 315.204 85.5918C316.064 86.4474 316.541 87.5883 316.541 89.0144C316.541 90.3454 316.159 91.3912 315.491 92.2468C314.727 93.0074 313.867 93.3877 312.721 93.3877C311.671 93.2926 310.811 93.0074 310.047 92.2468ZM294.671 104.416C295.149 102.895 295.435 100.233 295.435 96.5251C295.435 92.8173 295.149 90.2503 294.671 88.6341C294.194 87.1129 293.43 86.2573 292.475 86.2573C291.52 86.2573 290.756 87.0179 290.278 88.6341C289.801 90.1552 289.514 92.8173 289.514 96.5251C289.514 100.233 289.801 102.8 290.278 104.416C290.756 105.937 291.52 106.793 292.475 106.793C293.43 106.793 294.098 105.937 294.671 104.416Z" fill="#16324E"/>
<path d="M335.069 116.68C335.069 118.677 335.355 120.008 335.928 120.768C336.501 121.529 337.552 121.909 339.08 121.909V123.43C333.923 123.24 330.485 123.145 328.861 123.145C327.238 123.145 323.608 123.24 318.069 123.43V121.909C319.597 121.909 320.648 121.529 321.221 120.768C321.794 120.008 322.08 118.677 322.08 116.68V93.8629C322.08 91.6762 321.794 90.06 321.221 89.0142C320.648 87.9684 319.597 87.493 318.069 87.493V85.9718C319.597 86.162 321.125 86.162 322.558 86.162C327.524 86.162 331.726 85.7817 335.069 85.1162V116.68ZM334.018 68.7637C335.355 69.8095 336.119 71.3307 336.119 73.3272C336.119 75.3237 335.451 76.8449 334.018 77.8907C332.681 78.9365 330.676 79.5069 328.193 79.5069C325.614 79.5069 323.704 78.9365 322.367 77.8907C321.03 76.8449 320.361 75.3237 320.361 73.3272C320.361 71.3307 321.03 69.8095 322.367 68.7637C323.704 67.7179 325.614 67.1475 328.193 67.1475C330.676 67.1475 332.586 67.7179 334.018 68.7637Z" fill="#16324E"/>
<path d="M358.468 86.0676H365.535V87.4937H358.468V117.346C358.468 118.297 358.659 118.963 358.945 119.343C359.327 119.723 359.805 119.913 360.569 119.913C361.142 119.913 361.81 119.723 362.479 119.438C363.243 119.058 363.816 118.582 364.389 117.822L365.439 118.678C363.243 122.48 359.805 124.382 355.221 124.382C351.878 124.382 349.395 123.526 347.771 121.91C346.721 120.864 346.148 119.628 345.766 118.202C345.479 116.681 345.288 114.589 345.288 111.927V87.4937H339.845V86.0676H345.288V77.6061C347.867 77.6061 350.255 77.3209 352.356 76.8456C354.457 76.3702 356.462 75.5145 358.277 74.4688V86.0676H358.468Z" fill="#16324E"/>
<path d="M369.45 121.339C367.922 119.723 367.062 117.632 367.062 115.16C367.062 112.973 367.636 111.262 368.782 109.836C369.928 108.41 371.265 107.364 372.793 106.603C374.321 105.843 376.326 105.082 378.809 104.226C381.388 103.371 383.298 102.61 384.539 101.85C385.781 101.089 386.354 100.138 386.354 98.8073V92.4374C386.354 90.9163 385.972 89.5853 385.208 88.3493C384.444 87.1134 383.107 86.5429 381.292 86.5429C379.764 86.5429 378.427 86.9232 377.281 87.7789C378.905 88.3493 380.146 89.205 380.91 90.3458C381.674 91.4867 382.056 92.7226 382.056 94.1487C382.056 96.0502 381.388 97.4763 380.051 98.6172C378.714 99.758 377.09 100.328 375.276 100.328C373.366 100.328 371.933 99.758 370.883 98.5221C369.832 97.3812 369.259 95.86 369.259 94.0537C369.259 92.6276 369.641 91.3916 370.31 90.3458C371.074 89.3 372.124 88.3493 373.652 87.4937C376.326 85.9725 380.146 85.2119 385.208 85.2119C387.882 85.2119 390.174 85.4971 392.084 85.9725C393.994 86.4479 395.618 87.3986 396.955 88.8247C397.91 89.8705 398.578 91.1064 398.865 92.6276C399.151 94.1487 399.342 96.2403 399.342 98.9024V118.202C399.342 119.438 399.438 120.199 399.629 120.674C399.82 121.149 400.106 121.339 400.488 121.339C400.87 121.339 401.157 121.244 401.539 121.054C401.921 120.864 402.303 120.579 402.589 120.294L403.353 121.53C401.252 123.336 398.292 124.192 394.472 124.192C391.607 124.192 389.601 123.716 388.455 122.766C387.309 121.815 386.64 120.484 386.545 118.773C384.253 122.385 380.91 124.192 376.422 124.192C373.366 123.811 371.074 123.051 369.45 121.339ZM386.354 116.871V101.755C385.876 102.515 385.112 103.371 383.966 104.512C382.629 105.748 381.674 106.984 381.006 108.124C380.337 109.265 379.955 110.882 379.955 112.878C379.955 116.301 381.197 118.012 383.584 118.012C384.635 118.107 385.59 117.727 386.354 116.871Z" fill="#16324E"/>
<path d="M422.167 116.681C422.167 118.677 422.454 120.008 423.027 120.769C423.6 121.529 424.65 121.91 426.179 121.91V123.431C421.021 123.241 417.583 123.146 415.96 123.146C414.336 123.146 410.707 123.241 405.168 123.431V121.91C406.696 121.91 407.747 121.529 408.32 120.769C408.893 120.008 409.179 118.677 409.179 116.681V75.7994C409.179 73.6127 408.893 71.9965 408.32 70.9507C407.747 69.9049 406.696 69.4295 405.168 69.4295V67.9084C406.696 68.0985 408.129 68.0985 409.657 68.0985C414.623 68.0985 418.825 67.7182 422.167 67.0527V116.681Z" fill="#16324E"/>
<path d="M65.1319 37.2887C64.8008 37.2066 64.387 37.1246 64.056 37.1246C63.5594 37.0425 63.0629 36.9605 62.5663 36.8784C62.4836 36.8784 62.4008 36.8784 62.318 36.8784C61.9042 36.7963 61.4904 36.7963 60.9939 36.7143C60.9111 36.7143 60.9111 36.7143 60.8284 36.7143C60.3318 36.7143 59.918 36.6322 59.4214 36.6322C53.5455 36.386 47.6696 37.5349 42.2902 40.0789C40.7178 40.8175 39.2281 41.7202 37.8212 42.6229C37.3246 42.9511 36.8281 43.2794 36.3315 43.6897C36.0005 43.9359 35.6694 44.1821 35.3384 44.5104C34.0142 45.5772 32.6901 46.7261 31.5314 47.9571C31.1176 48.3674 30.7866 48.7777 30.4556 49.188C30.3728 49.2701 30.29 49.3522 30.29 49.4342C29.628 50.2549 28.9659 50.9934 28.3866 51.8961C26.0693 55.1787 24.2486 58.8716 23.1727 62.8107C11.7519 66.1753 3.06211 75.5307 0.662077 87.1838C0.165519 89.3175 0 91.5332 0 93.7489C0 109.341 11.2553 122.389 26.1521 125.344C28.3038 125.754 30.5383 126 32.7728 126C33.0211 126 47.6696 126 47.6696 126H47.7523C57.3525 126 65.1319 118.204 65.1319 108.767C65.1319 108.767 65.1319 37.1246 65.1319 37.2887Z" fill="#254699"/>
<path d="M152.196 108.767V22.0255C152.196 17.8402 148.803 14.4756 144.582 14.4756H72.7464C68.5256 14.4756 65.1325 17.8402 65.1325 22.0255V108.767C65.1325 118.205 57.3531 126.001 47.7529 126.001C50.153 126.001 101.629 126.001 134.733 126.001H134.816C144.416 126.001 152.196 118.205 152.196 108.767Z" fill="url(#paint0_linear)"/>
<path d="M40.3037 126.001C40.8003 126.001 43.7796 126.001 48.4142 126.001C57.6832 125.673 65.1316 118.041 65.1316 108.767C65.1316 108.767 65.1316 37.1252 65.1316 37.2893C64.8006 37.2073 64.3868 37.1252 64.0557 37.1252C63.5592 37.0431 63.0626 36.9611 62.5661 36.879C62.4833 36.879 62.4006 36.879 62.3178 36.879C61.904 36.7969 61.4902 36.7969 60.9936 36.7149C60.9109 36.7149 60.9109 36.7149 60.8281 36.7149C60.3316 36.7149 59.9178 36.6328 59.4212 36.6328C58.8419 36.6328 58.2626 36.6328 57.766 36.6328V108.849C57.6832 118.205 49.9038 126.001 40.3037 126.001Z" fill="#193D84"/>
<path d="M142.098 42.9516H91.6144C90.5385 42.9516 89.7109 42.1309 89.7109 41.0641V39.0125C89.7109 37.9456 90.5385 37.125 91.6144 37.125H142.098C143.174 37.125 144.001 37.9456 144.001 39.0125V41.0641C144.001 42.0489 143.174 42.9516 142.098 42.9516Z" fill="#E8DBBA"/>
<path d="M85.2417 42.9515H77.214C76.1381 42.9515 75.3105 42.1309 75.3105 41.0641V34.1707C75.3105 33.1038 76.1381 32.2832 77.214 32.2832H85.2417C86.3176 32.2832 87.1452 33.1038 87.1452 34.1707V40.982C87.1452 42.0488 86.3176 42.9515 85.2417 42.9515Z" fill="#E8DBBA"/>
<path d="M142.098 53.7836H77.214C76.1381 53.7836 75.3105 52.963 75.3105 51.8961V49.8445C75.3105 48.7777 76.1381 47.957 77.214 47.957H142.098C143.173 47.957 144.001 48.7777 144.001 49.8445V51.8961C144.001 52.963 143.173 53.7836 142.098 53.7836Z" fill="#E8DBBA"/>
<path d="M142.098 64.6986H77.214C76.1381 64.6986 75.3105 63.878 75.3105 62.8112V60.7595C75.3105 59.6927 76.1381 58.8721 77.214 58.8721H142.098C143.173 58.8721 144.001 59.6927 144.001 60.7595V62.8112C144.001 63.7959 143.173 64.6986 142.098 64.6986Z" fill="#E8DBBA"/>
<path d="M142.098 75.5316H77.214C76.1381 75.5316 75.3105 74.711 75.3105 73.6442V71.5926C75.3105 70.5257 76.1381 69.7051 77.214 69.7051H142.098C143.173 69.7051 144.001 70.5257 144.001 71.5926V73.6442C144.001 74.711 143.173 75.5316 142.098 75.5316Z" fill="#E8DBBA"/>
<path d="M142.098 86.4457H77.214C76.1381 86.4457 75.3105 85.6251 75.3105 84.5582V82.5066C75.3105 81.4398 76.1381 80.6191 77.214 80.6191H142.098C143.173 80.6191 144.001 81.4398 144.001 82.5066V84.5582C144.001 85.543 143.173 86.4457 142.098 86.4457Z" fill="#E8DBBA"/>
<path d="M142.098 97.2777H77.214C76.1381 97.2777 75.3105 96.4571 75.3105 95.3902V93.3386C75.3105 92.2718 76.1381 91.4512 77.214 91.4512H142.098C143.173 91.4512 144.001 92.2718 144.001 93.3386V95.3902C144.001 96.4571 143.173 97.2777 142.098 97.2777Z" fill="#E8DBBA"/>
<path d="M117.683 108.193H77.214C76.1381 108.193 75.3105 107.372 75.3105 106.305V104.254C75.3105 103.187 76.1381 102.366 77.214 102.366H117.683C118.759 102.366 119.587 103.187 119.587 104.254V106.305C119.587 107.29 118.677 108.193 117.683 108.193Z" fill="#E8DBBA"/>
<path d="M141.685 28.2624V14.4756H130.926V30.3961L135.891 28.7548L140.857 30.3961L141.685 29.2472V28.2624Z" fill="#EEE2D2"/>
<path d="M141.684 29.2468L136.719 27.6056L131.753 29.2468V12.834H141.684V29.2468Z" fill="#2649B6"/>
<path d="M131.753 12.834L130.926 14.4753H131.753V12.834Z" fill="#193D84"/>
<defs>
<linearGradient id="paint0_linear" x1="148.683" y1="14.001" x2="62.4269" y2="126.291" gradientUnits="userSpaceOnUse">
<stop stop-color="#FCF8E3"/>
<stop offset="0.878437" stop-color="#FCE9D2"/>
</linearGradient>
</defs>
</svg>
