<svg width="415" height="134" viewBox="0 0 415 134" fill="none" xmlns="http://www.w3.org/2000/svg">
<path d="M203.722 43.8284C204.295 44.3988 204.773 44.6841 205.25 44.6841V45.7299C202.767 45.6348 199.616 45.5397 195.891 45.5397C191.975 45.5397 189.11 45.6348 187.296 45.7299V44.6841C188.633 44.589 189.492 44.4939 190.065 44.2087C190.638 43.9235 190.925 43.5432 190.925 42.8777C190.925 42.3072 190.734 41.4516 190.352 40.4058L187.296 32.0394H176.791L175.931 34.3211C174.785 37.2684 174.212 39.4551 174.212 40.9762C174.212 42.4023 174.594 43.353 175.358 43.8284C176.122 44.3038 177.268 44.589 178.892 44.6841V45.7299C176.313 45.6348 174.116 45.5397 172.111 45.5397C170.487 45.5397 169.15 45.6348 168.195 45.7299V44.6841C169.055 44.589 169.819 44.0185 170.583 43.0678C171.347 42.1171 172.111 40.691 172.875 38.6945L184.335 9.41211C185.386 9.50718 186.341 9.50718 187.105 9.50718C187.773 9.50718 188.728 9.50718 189.779 9.41211L202.194 41.4516C202.672 42.4974 203.149 43.258 203.722 43.8284ZM186.818 30.8985L182.139 18.0637L177.173 30.8985H186.818Z" fill="#16324E"/>
<path d="M246.985 35.8423C250.041 37.0782 252.237 38.5994 253.67 40.5008C255.102 42.3072 255.771 44.3037 255.771 46.3953C255.771 51.0539 253.861 54.5716 250.136 56.8533C246.412 59.1351 241.064 60.2759 234.187 60.2759C232.755 60.2759 231.609 60.2759 230.654 60.1809C227.407 60.0858 224.16 59.9907 221.104 59.9907C215.469 59.9907 211.267 60.0858 208.593 60.1809V58.7548C210.121 58.6597 211.267 58.4696 211.935 58.1843C212.604 57.8991 213.081 57.3287 213.368 56.5681C213.654 55.7125 213.75 54.4765 213.75 52.5751V17.0179C213.75 15.2115 213.654 13.8805 213.368 13.0249C213.081 12.1692 212.604 11.6939 211.935 11.4086C211.267 11.1234 210.121 10.9333 208.593 10.8382V9.41211C211.362 9.60225 215.469 9.60225 221.008 9.60225L229.317 9.50718C230.272 9.50718 231.418 9.41211 232.659 9.41211C238.963 9.41211 243.833 10.4579 247.176 12.4544C250.518 14.451 252.142 17.2081 252.142 20.7257C252.142 22.5321 251.473 24.2434 250.232 26.0498C248.99 27.8562 247.08 29.3773 244.597 30.8034C242.114 32.1345 239.058 32.9901 235.429 33.4655V33.6556C240.109 33.8458 243.929 34.6063 246.985 35.8423ZM229.603 11.3136C229.03 11.6939 228.648 12.2643 228.457 13.1199C228.266 13.9756 228.171 15.3066 228.171 17.0179V33.2753H230.081C232.659 33.2753 234.474 32.2295 235.524 30.0429C236.575 27.9513 237.052 25.0991 237.052 21.4863C237.052 17.8736 236.67 15.1165 235.906 13.4052C235.142 11.6939 233.805 10.7431 232.086 10.7431C231.036 10.8382 230.176 11.0283 229.603 11.3136ZM240.586 46.015C240.586 42.2121 239.631 39.36 237.817 37.3634C236.002 35.3669 233.137 34.4162 229.126 34.4162H228.075V52.5751C228.075 54.2864 228.171 55.5223 228.457 56.378C228.744 57.2336 229.126 57.709 229.794 58.0893C230.463 58.3745 231.418 58.5646 232.755 58.5646C238.008 58.5646 240.586 54.3814 240.586 46.015Z" fill="#16324E"/>
<path d="M275.063 53.6211C275.063 55.6176 275.349 56.9486 275.922 57.7092C276.495 58.4698 277.546 58.8501 279.074 58.8501V60.3712C273.917 60.1811 270.479 60.086 268.855 60.086C267.232 60.086 263.603 60.1811 258.063 60.3712V58.8501C259.592 58.8501 260.642 58.4698 261.215 57.7092C261.788 56.9486 262.075 55.6176 262.075 53.6211V12.7398C262.075 10.5532 261.788 8.93694 261.215 7.89114C260.642 6.84534 259.592 6.36998 258.063 6.36998V4.84882C259.592 5.03896 261.024 5.03896 262.552 5.03896C267.518 5.03896 271.72 4.65867 275.063 3.99316V53.6211Z" fill="#16324E"/>
<path d="M298.939 53.621C298.939 55.6175 299.225 56.9485 299.798 57.7091C300.371 58.4697 301.422 58.85 302.95 58.85V60.3711C297.793 60.181 294.355 60.0859 292.731 60.0859C291.108 60.0859 287.479 60.181 281.939 60.3711V58.85C283.467 58.85 284.518 58.4697 285.091 57.7091C285.664 56.9485 285.951 55.6175 285.951 53.621V30.8035C285.951 28.6169 285.664 27.0006 285.091 25.9548C284.518 24.909 283.467 24.4337 281.939 24.4337V22.9125C283.467 23.1026 284.996 23.1026 286.428 23.1026C291.394 23.1026 295.596 22.7224 298.939 22.0569V53.621ZM301.995 4.56349C301.995 5.79943 301.613 6.9403 300.753 7.89103C300.276 8.46146 299.798 8.93683 299.13 9.41219C298.461 9.88755 297.888 10.3629 297.411 10.6481C296.838 11.0284 296.456 11.2186 296.169 11.4087C294.641 12.3594 293.304 13.2151 292.063 14.0707C290.917 14.9264 289.58 15.8771 288.052 17.1131L287.288 16.4476C288.147 14.7363 288.816 13.2151 289.293 11.9792C289.771 10.7432 290.248 9.12697 290.917 7.22552C291.394 5.79943 291.776 4.65856 292.063 3.89798C292.445 3.1374 292.827 2.37682 293.4 1.71131C293.877 1.14087 294.355 0.760581 295.119 0.475363C295.787 0.190145 296.551 0 297.315 0C298.557 0 299.607 0.380291 300.467 1.14087C301.517 2.0916 301.995 3.1374 301.995 4.56349Z" fill="#16324E"/>
<path d="M341.724 26.5254C344.016 29.5677 345.162 34.0361 345.162 39.9306C345.162 47.5364 343.634 52.9555 340.578 56.2831C337.522 59.6106 333.415 61.2269 328.354 61.2269C326.826 61.2269 325.489 61.1318 324.533 61.0367C323.483 60.9416 322.528 60.6564 321.668 60.2761C319.854 59.5156 318.039 59.2303 316.129 59.2303C314.697 59.2303 313.36 59.4205 312.118 59.8008C310.877 60.1811 309.922 60.6564 309.253 61.3219L308.203 60.5614C308.585 59.5156 308.68 58.2796 308.68 56.5683V12.6448C308.68 10.4581 308.394 8.84187 307.821 7.79607C307.248 6.75027 306.197 6.27491 304.669 6.27491V4.84882C306.197 5.03896 307.63 5.03896 309.158 5.03896C314.124 5.03896 318.326 4.65867 321.668 3.99316V27.2859C323.865 23.6732 327.494 21.8668 332.651 21.8668C336.376 21.9619 339.432 23.483 341.724 26.5254ZM331.696 41.6419C331.696 35.7474 331.219 31.6593 330.359 29.2825C329.5 26.9057 328.354 25.7648 326.826 25.7648C325.393 25.7648 324.247 26.2401 323.196 27.1909C322.146 28.1416 321.668 29.3775 321.668 30.8987V58.9451C322.814 59.5156 323.865 59.8008 325.011 59.8008C329.5 59.8008 331.696 53.8112 331.696 41.6419Z" fill="#16324E"/>
<path d="M365.98 53.6211C365.98 55.6176 366.266 56.9486 366.839 57.7092C367.412 58.4698 368.463 58.8501 369.991 58.8501V60.3712C364.834 60.1811 361.396 60.086 359.772 60.086C358.149 60.086 354.52 60.1811 348.98 60.3712V58.8501C350.509 58.8501 351.559 58.4698 352.132 57.7092C352.705 56.9486 352.992 55.6176 352.992 53.6211V30.8036C352.992 28.617 352.705 27.0007 352.132 25.9549C351.559 24.9091 350.509 24.4338 348.98 24.4338V22.9126C350.509 23.1028 352.037 23.1028 353.469 23.1028C358.435 23.1028 362.637 22.7225 365.98 22.057V53.6211ZM364.834 5.6094C366.171 6.6552 366.935 8.17636 366.935 10.1729C366.935 12.1694 366.266 13.6906 364.834 14.7364C363.497 15.7822 361.491 16.3526 359.008 16.3526C356.43 16.3526 354.52 15.7822 353.183 14.7364C351.846 13.6906 351.177 12.1694 351.177 10.1729C351.177 8.17636 351.846 6.6552 353.183 5.6094C354.52 4.5636 356.43 3.99316 359.008 3.99316C361.587 4.08824 363.497 4.5636 364.834 5.6094Z" fill="#16324E"/>
<path d="M375.149 58.2799C373.621 56.6637 372.762 54.5721 372.762 52.1002C372.762 49.9135 373.335 48.2022 374.481 46.7761C375.627 45.3501 376.964 44.3043 378.492 43.5437C380.02 42.7831 382.025 42.0225 384.508 41.1669C387.087 40.3112 388.997 39.5506 390.239 38.79C391.48 38.0295 392.053 37.0787 392.053 35.7477V29.3779C392.053 27.8567 391.671 26.5257 390.907 25.2897C390.143 24.0538 388.806 23.4834 386.992 23.4834C385.464 23.4834 384.126 23.8636 382.98 24.7193C384.604 25.2897 385.846 26.1454 386.61 27.2863C387.374 28.4271 387.756 29.6631 387.756 31.0892C387.756 32.9906 387.087 34.4167 385.75 35.5576C384.413 36.6984 382.789 37.2689 380.975 37.2689C379.065 37.2689 377.632 36.6984 376.582 35.4625C375.531 34.3216 374.958 32.8005 374.958 30.9941C374.958 29.568 375.34 28.3321 376.009 27.2863C376.773 26.2405 377.823 25.2897 379.351 24.4341C382.025 22.9129 385.846 22.1523 390.907 22.1523C393.581 22.1523 395.873 22.4376 397.783 22.9129C399.693 23.3883 401.317 24.339 402.654 25.7651C403.609 26.8109 404.277 28.0468 404.564 29.568C404.85 31.0892 405.041 33.1808 405.041 35.8428V55.1425C405.041 56.3785 405.137 57.1391 405.328 57.6144C405.519 58.0898 405.805 58.2799 406.187 58.2799C406.569 58.2799 406.856 58.1849 407.238 57.9947C407.62 57.8046 408.002 57.5193 408.289 57.2341L409.053 58.4701C406.952 60.2765 403.991 61.1321 400.171 61.1321C397.306 61.1321 395.3 60.6567 394.154 59.706C393.008 58.7553 392.34 57.4243 392.244 55.713C389.952 59.3257 386.61 61.1321 382.121 61.1321C379.065 60.7518 376.773 59.8962 375.149 58.2799ZM391.958 53.8115V38.5999C391.48 39.3605 390.716 40.2161 389.57 41.357C388.233 42.593 387.278 43.8289 386.61 44.9698C385.941 46.1106 385.559 47.7269 385.559 49.7234C385.559 53.146 386.801 54.8573 389.188 54.8573C390.334 55.0475 391.194 54.5721 391.958 53.8115Z" fill="#16324E"/>
<path d="M229.603 75.6778C234.569 79.9561 237.052 86.0407 237.052 94.217C237.052 99.446 235.81 104.009 233.423 107.907C231.035 111.805 227.502 114.848 222.918 117.034C218.334 119.221 212.89 120.267 206.587 120.267L202.098 120.172C199.233 120.077 197.132 119.982 195.795 119.982C190.16 119.982 185.958 120.077 183.284 120.172V118.746C184.812 118.651 185.958 118.46 186.627 118.175C187.295 117.89 187.773 117.32 188.059 116.559C188.346 115.703 188.441 114.467 188.441 112.566V76.9138C188.441 75.1074 188.346 73.7764 188.059 72.9207C187.773 72.0651 187.295 71.5897 186.627 71.3045C185.958 71.0193 184.812 70.8291 183.284 70.7341V69.308C185.481 69.4981 188.728 69.4981 193.121 69.4981H195.699L198.851 69.403C202.862 69.308 205.727 69.2129 207.255 69.2129C217.188 69.308 224.637 71.3996 229.603 75.6778ZM204.963 71.1143C204.199 71.4946 203.722 72.0651 203.435 72.9207C203.149 73.7764 202.958 75.1074 202.958 76.8187V112.756C202.958 114.467 203.149 115.798 203.435 116.654C203.722 117.51 204.199 118.08 204.963 118.461C205.727 118.841 206.873 118.936 208.401 118.936C213.176 118.936 216.614 116.844 218.716 112.756C220.817 108.668 221.867 102.583 221.867 94.5022C221.867 86.421 220.817 80.4315 218.62 76.5335C216.423 72.6355 212.985 70.639 208.306 70.639C206.873 70.639 205.727 70.8291 204.963 71.1143Z" fill="#16324E"/>
<path d="M258.159 113.516C258.159 115.513 258.445 116.844 259.018 117.604C259.591 118.365 260.642 118.745 262.17 118.745V120.266C257.013 120.076 253.575 119.981 251.951 119.981C250.327 119.981 246.698 120.076 241.159 120.266V118.745C242.687 118.745 243.738 118.365 244.311 117.604C244.884 116.844 245.17 115.513 245.17 113.516V90.6988C245.17 88.5121 244.884 86.8959 244.311 85.8501C243.738 84.8043 242.687 84.3289 241.159 84.3289V82.8078C242.687 82.9979 244.215 82.9979 245.648 82.9979C250.614 82.9979 254.816 82.6176 258.159 81.9521V113.516ZM257.108 65.5996C258.445 66.6454 259.209 68.1666 259.209 70.1631C259.209 72.1596 258.541 73.6808 257.108 74.7266C255.771 75.7724 253.766 76.3428 251.282 76.3428C248.704 76.3428 246.794 75.7724 245.457 74.7266C244.12 73.6808 243.451 72.1596 243.451 70.1631C243.451 68.1666 244.12 66.6454 245.457 65.5996C246.794 64.5538 248.704 63.9834 251.282 63.9834C253.766 63.9834 255.676 64.5538 257.108 65.5996Z" fill="#16324E"/>
<path d="M297.983 89.0828C297.219 88.4173 296.837 87.3715 296.837 86.1355C296.837 84.9947 297.219 83.7587 297.887 82.4277C295.786 83.2833 294.258 84.5193 293.208 86.1355C295.022 88.037 295.882 90.4138 295.882 93.361C295.882 97.1639 294.449 100.016 291.68 101.918C288.91 103.819 285.09 104.865 280.41 104.865C279.455 104.865 278.787 104.865 278.405 104.77C277.163 105.625 276.495 106.671 276.495 107.812C276.495 109.333 277.354 110.094 279.073 110.094H286.045C290.916 110.094 294.736 110.949 297.505 112.566C300.275 114.182 301.612 116.749 301.612 120.267C301.612 122.738 300.848 125.02 299.224 127.017C297.601 129.013 295.118 130.629 291.775 131.865C288.433 133.101 284.23 133.672 279.264 133.672C274.298 133.672 270.383 133.101 267.613 132.056C264.748 130.915 263.315 129.394 263.315 127.397C263.315 125.971 263.984 124.735 265.416 123.594C266.849 122.453 268.95 121.503 271.72 120.837L272.484 121.978C271.147 123.594 270.574 125.115 270.574 126.541C270.574 128.443 271.433 129.869 273.152 130.915C274.871 131.961 277.259 132.436 280.315 132.436C283.466 132.436 285.95 131.77 287.669 130.534C289.388 129.298 290.247 127.587 290.247 125.496C290.247 123.974 289.674 122.834 288.528 121.978C287.382 121.122 285.376 120.647 282.607 120.647H278.691C275.444 120.647 272.961 119.981 271.242 118.745C269.523 117.509 268.664 115.798 268.664 113.707C268.664 111.805 269.332 110.094 270.765 108.668C272.102 107.242 274.107 105.911 276.686 104.675C273.057 104.199 270.192 103.058 268.091 101.157C265.989 99.2555 264.939 96.6886 264.939 93.4561C264.939 89.6532 266.372 86.801 269.141 84.8996C271.911 82.9981 275.731 81.9523 280.41 81.9523C285.472 81.9523 289.388 82.9981 292.062 85.0897C293.017 83.8538 294.067 82.9031 295.404 82.1425C296.741 81.3819 298.078 81.0967 299.511 81.0967C301.134 81.0967 302.28 81.572 303.14 82.4277C303.999 83.2833 304.477 84.4242 304.477 85.8503C304.477 87.1813 304.095 88.2271 303.426 89.0828C302.662 89.8434 301.803 90.2237 300.657 90.2237C299.606 90.1286 298.747 89.8434 297.983 89.0828ZM282.607 101.252C283.084 99.7309 283.371 97.0689 283.371 93.361C283.371 89.6532 283.084 87.0863 282.607 85.47C282.129 83.9489 281.365 83.0932 280.41 83.0932C279.455 83.0932 278.691 83.8538 278.214 85.47C277.736 86.9912 277.45 89.6532 277.45 93.361C277.45 97.0689 277.736 99.6358 278.214 101.252C278.691 102.773 279.455 103.629 280.41 103.629C281.365 103.629 282.034 102.773 282.607 101.252Z" fill="#16324E"/>
<path d="M323.004 113.516C323.004 115.513 323.291 116.844 323.864 117.604C324.437 118.365 325.487 118.745 327.015 118.745V120.266C321.858 120.076 318.42 119.981 316.797 119.981C315.173 119.981 311.544 120.076 306.005 120.266V118.745C307.533 118.745 308.583 118.365 309.156 117.604C309.729 116.844 310.016 115.513 310.016 113.516V90.6988C310.016 88.5121 309.729 86.8959 309.156 85.8501C308.583 84.8043 307.533 84.3289 306.005 84.3289V82.8078C307.533 82.9979 309.061 82.9979 310.494 82.9979C315.46 82.9979 319.662 82.6176 323.004 81.9521V113.516ZM321.954 65.5996C323.291 66.6454 324.055 68.1666 324.055 70.1631C324.055 72.1596 323.386 73.6808 321.954 74.7266C320.617 75.7724 318.611 76.3428 316.128 76.3428C313.55 76.3428 311.64 75.7724 310.302 74.7266C308.965 73.6808 308.297 72.1596 308.297 70.1631C308.297 68.1666 308.965 66.6454 310.302 65.5996C311.64 64.5538 313.55 63.9834 316.128 63.9834C318.611 63.9834 320.521 64.5538 321.954 65.5996Z" fill="#16324E"/>
<path d="M346.403 82.9035H353.47V84.3296H346.403V114.182C346.403 115.133 346.594 115.799 346.881 116.179C347.263 116.559 347.74 116.749 348.504 116.749C349.077 116.749 349.746 116.559 350.414 116.274C351.178 115.894 351.751 115.418 352.324 114.658L353.375 115.513C351.178 119.316 347.74 121.218 343.156 121.218C339.814 121.218 337.331 120.362 335.707 118.746C334.656 117.7 334.083 116.464 333.701 115.038C333.415 113.517 333.224 111.425 333.224 108.763V84.3296H327.78V82.9035H333.224V74.4421C335.802 74.4421 338.19 74.1569 340.291 73.6815C342.392 73.2061 344.398 72.3505 346.212 71.3047V82.9035H346.403Z" fill="#16324E"/>
<path d="M357.386 118.175C355.858 116.559 354.998 114.468 354.998 111.996C354.998 109.809 355.571 108.098 356.717 106.672C357.863 105.246 359.2 104.2 360.728 103.439C362.256 102.679 364.262 101.918 366.745 101.062C369.323 100.207 371.233 99.4461 372.475 98.6856C373.717 97.925 374.29 96.9742 374.29 95.6432V89.2734C374.29 87.7522 373.908 86.4212 373.144 85.1852C372.379 83.9493 371.042 83.3789 369.228 83.3789C367.7 83.3789 366.363 83.7592 365.217 84.6148C366.84 85.1853 368.082 86.0409 368.846 87.1818C369.61 88.3226 369.992 89.5586 369.992 90.9847C369.992 92.8861 369.323 94.3122 367.986 95.4531C366.649 96.594 365.026 97.1644 363.211 97.1644C361.301 97.1644 359.869 96.594 358.818 95.358C357.768 94.2171 357.195 92.696 357.195 90.8896C357.195 89.4635 357.577 88.2276 358.245 87.1818C359.009 86.136 360.06 85.1852 361.588 84.3296C364.262 82.8084 368.082 82.0479 373.144 82.0479C375.818 82.0479 378.11 82.3331 380.02 82.8084C381.93 83.2838 383.553 84.2345 384.89 85.6606C385.845 86.7064 386.514 87.9424 386.8 89.4635C387.087 90.9847 387.278 93.0763 387.278 95.7383V115.038C387.278 116.274 387.373 117.035 387.564 117.51C387.755 117.985 388.042 118.175 388.424 118.175C388.806 118.175 389.092 118.08 389.474 117.89C389.856 117.7 390.238 117.415 390.525 117.13L391.289 118.366C389.188 120.172 386.227 121.028 382.407 121.028C379.542 121.028 377.537 120.552 376.391 119.602C375.245 118.651 374.576 117.32 374.481 115.608C372.188 119.221 368.846 121.028 364.357 121.028C361.301 120.647 359.009 119.887 357.386 118.175ZM374.29 113.707V98.5905C373.812 99.3511 373.048 100.207 371.902 101.348C370.565 102.584 369.61 103.819 368.941 104.96C368.273 106.101 367.891 107.717 367.891 109.714C367.891 113.137 369.132 114.848 371.52 114.848C372.57 114.943 373.526 114.563 374.29 113.707Z" fill="#16324E"/>
<path d="M410.103 113.517C410.103 115.513 410.389 116.844 410.963 117.605C411.536 118.365 412.586 118.746 414.114 118.746V120.267C408.957 120.077 405.519 119.981 403.895 119.981C402.272 119.981 398.643 120.077 393.104 120.267V118.746C394.632 118.746 395.682 118.365 396.255 117.605C396.828 116.844 397.115 115.513 397.115 113.517V72.6354C397.115 70.4487 396.828 68.8324 396.255 67.7866C395.682 66.7408 394.632 66.2655 393.104 66.2655V64.7443C394.632 64.9345 396.064 64.9345 397.592 64.9345C402.558 64.9345 406.76 64.5542 410.103 63.8887V113.517Z" fill="#16324E"/>
<path d="M65.1319 34.1246C64.8008 34.0426 64.387 33.9605 64.056 33.9605C63.5594 33.8785 63.0629 33.7964 62.5663 33.7143C62.4836 33.7143 62.4008 33.7143 62.318 33.7143C61.9042 33.6323 61.4904 33.6323 60.9939 33.5502C60.9111 33.5502 60.9111 33.5502 60.8284 33.5502C60.3318 33.5502 59.918 33.4681 59.4214 33.4681C53.5455 33.2219 47.6696 34.3708 42.2902 36.9148C40.7178 37.6534 39.2281 38.5561 37.8212 39.4588C37.3246 39.7871 36.8281 40.1153 36.3315 40.5257C36.0005 40.7719 35.6694 41.018 35.3384 41.3463C34.0142 42.4131 32.6901 43.562 31.5314 44.793C31.1176 45.2033 30.7866 45.6136 30.4556 46.024C30.3728 46.106 30.29 46.1881 30.29 46.2702C29.628 47.0908 28.9659 47.8294 28.3866 48.7321C26.0693 52.0147 24.2486 55.7076 23.1727 59.6466C11.7519 63.0113 3.06211 72.3666 0.662077 84.0197C0.165519 86.1534 0 88.3691 0 90.5849C0 106.177 11.2553 119.225 26.1521 122.18C28.3038 122.59 30.5383 122.836 32.7728 122.836C33.0211 122.836 47.6696 122.836 47.6696 122.836H47.7523C57.3525 122.836 65.1319 115.04 65.1319 105.603C65.1319 105.603 65.1319 33.9605 65.1319 34.1246Z" fill="#254699"/>
<path d="M152.196 105.603V18.8614C152.196 14.6762 148.803 11.3115 144.582 11.3115H72.7464C68.5256 11.3115 65.1325 14.6762 65.1325 18.8614V105.603C65.1325 115.041 57.3531 122.837 47.7529 122.837C50.153 122.837 101.629 122.837 134.733 122.837H134.816C144.416 122.837 152.196 115.041 152.196 105.603Z" fill="url(#paint0_linear)"/>
<path d="M40.3037 122.837C40.8003 122.837 43.7796 122.837 48.4142 122.837C57.6832 122.509 65.1316 114.877 65.1316 105.603C65.1316 105.603 65.1316 33.9611 65.1316 34.1253C64.8006 34.0432 64.3868 33.9611 64.0557 33.9611C63.5592 33.8791 63.0626 33.797 62.5661 33.7149C62.4833 33.7149 62.4006 33.7149 62.3178 33.7149C61.904 33.6329 61.4902 33.6329 60.9936 33.5508C60.9109 33.5508 60.9109 33.5508 60.8281 33.5508C60.3316 33.5508 59.9178 33.4688 59.4212 33.4688C58.8419 33.4688 58.2626 33.4688 57.766 33.4688V105.685C57.6832 115.041 49.9038 122.837 40.3037 122.837Z" fill="#193D84"/>
<path d="M142.098 39.7875H91.6144C90.5385 39.7875 89.7109 38.9669 89.7109 37.9V35.8484C89.7109 34.7816 90.5385 33.9609 91.6144 33.9609H142.098C143.174 33.9609 144.001 34.7816 144.001 35.8484V37.9C144.001 38.8848 143.174 39.7875 142.098 39.7875Z" fill="#E8DBBA"/>
<path d="M85.2417 39.7875H77.214C76.1381 39.7875 75.3105 38.9668 75.3105 37.9V31.0066C75.3105 29.9398 76.1381 29.1191 77.214 29.1191H85.2417C86.3176 29.1191 87.1452 29.9398 87.1452 31.0066V37.8179C87.1452 38.8848 86.3176 39.7875 85.2417 39.7875Z" fill="#E8DBBA"/>
<path d="M142.098 50.6195H77.214C76.1381 50.6195 75.3105 49.7989 75.3105 48.7321V46.6804C75.3105 45.6136 76.1381 44.793 77.214 44.793H142.098C143.173 44.793 144.001 45.6136 144.001 46.6804V48.7321C144.001 49.7989 143.173 50.6195 142.098 50.6195Z" fill="#E8DBBA"/>
<path d="M142.098 61.5346H77.214C76.1381 61.5346 75.3105 60.7139 75.3105 59.6471V57.5955C75.3105 56.5287 76.1381 55.708 77.214 55.708H142.098C143.173 55.708 144.001 56.5287 144.001 57.5955V59.6471C144.001 60.6319 143.173 61.5346 142.098 61.5346Z" fill="#E8DBBA"/>
<path d="M142.098 72.3676H77.214C76.1381 72.3676 75.3105 71.5469 75.3105 70.4801V68.4285C75.3105 67.3617 76.1381 66.541 77.214 66.541H142.098C143.173 66.541 144.001 67.3617 144.001 68.4285V70.4801C144.001 71.5469 143.173 72.3676 142.098 72.3676Z" fill="#E8DBBA"/>
<path d="M142.098 83.2816H77.214C76.1381 83.2816 75.3105 82.461 75.3105 81.3942V79.3426C75.3105 78.2757 76.1381 77.4551 77.214 77.4551H142.098C143.173 77.4551 144.001 78.2757 144.001 79.3426V81.3942C144.001 82.3789 143.173 83.2816 142.098 83.2816Z" fill="#E8DBBA"/>
<path d="M142.098 94.1136H77.214C76.1381 94.1136 75.3105 93.293 75.3105 92.2262V90.1746C75.3105 89.1077 76.1381 88.2871 77.214 88.2871H142.098C143.173 88.2871 144.001 89.1077 144.001 90.1746V92.2262C144.001 93.293 143.173 94.1136 142.098 94.1136Z" fill="#E8DBBA"/>
<path d="M117.683 105.029H77.214C76.1381 105.029 75.3105 104.208 75.3105 103.141V101.09C75.3105 100.023 76.1381 99.2021 77.214 99.2021H117.683C118.759 99.2021 119.587 100.023 119.587 101.09V103.141C119.587 104.126 118.677 105.029 117.683 105.029Z" fill="#E8DBBA"/>
<path d="M141.685 25.0983V11.3115H130.926V27.232L135.891 25.5907L140.857 27.232L141.685 26.0831V25.0983Z" fill="#EEE2D2"/>
<path d="M141.684 26.0828L136.719 24.4415L131.753 26.0828V9.66992H141.684V26.0828Z" fill="#2649B6"/>
<path d="M131.753 9.66992L130.926 11.3112H131.753V9.66992Z" fill="#193D84"/>
<defs>
<linearGradient id="paint0_linear" x1="148.683" y1="10.8369" x2="62.4269" y2="123.127" gradientUnits="userSpaceOnUse">
<stop stop-color="#FCF8E3"/>
<stop offset="0.878437" stop-color="#FCE9D2"/>
</linearGradient>
</defs>
</svg>
