<svg width="54" height="40" viewBox="0 0 54 40" fill="none" xmlns="http://www.w3.org/2000/svg">
<path d="M23.0118 8.64396C22.8949 8.61495 22.7487 8.58595 22.6317 8.58595C22.4563 8.55694 22.2808 8.52793 22.1054 8.49893C22.0761 8.49893 22.0469 8.49893 22.0177 8.49893C21.8715 8.46992 21.7253 8.46992 21.5498 8.44091C21.5206 8.44091 21.5206 8.44091 21.4913 8.44091C21.3159 8.44091 21.1697 8.41191 20.9943 8.41191C18.9182 8.32489 16.8422 8.73098 14.9416 9.63018C14.386 9.89124 13.8597 10.2103 13.3626 10.5294C13.1872 10.6454 13.0118 10.7614 12.8363 10.9065C12.7194 10.9935 12.6024 11.0805 12.4854 11.1965C12.0176 11.5736 11.5498 11.9797 11.1404 12.4148C10.9942 12.5598 10.8773 12.7049 10.7603 12.8499C10.7311 12.8789 10.7018 12.9079 10.7018 12.9369C10.4679 13.227 10.234 13.488 10.0293 13.8071C9.21058 14.9674 8.5673 16.2727 8.18718 17.665C4.15207 18.8542 1.08188 22.161 0.233919 26.2799C0.0584798 27.034 0 27.8172 0 28.6004C0 34.1116 3.97663 38.7236 9.23982 39.7679C10.0001 39.9129 10.7895 39.9999 11.579 39.9999C11.6667 39.9999 16.8422 39.9999 16.8422 39.9999H16.8714C20.2633 39.9999 23.0118 37.2443 23.0118 33.9086C23.0118 33.9086 23.0118 8.58595 23.0118 8.64396Z" fill="#254699"/>
<path d="M53.7719 33.9085V3.24867C53.7719 1.76934 52.573 0.580078 51.0818 0.580078H25.7016C24.2103 0.580078 23.0115 1.76934 23.0115 3.24867V33.9085C23.0115 37.2442 20.2629 39.9998 16.8711 39.9998C17.7191 39.9998 35.9063 39.9998 47.6023 39.9998H47.6315C51.0233 39.9998 53.7719 37.2442 53.7719 33.9085Z" fill="url(#paint0_linear)"/>
<path d="M14.2402 40.0001C14.4157 40.0001 15.4683 40.0001 17.1057 40.0001C20.3806 39.8841 23.0122 37.1865 23.0122 33.9088C23.0122 33.9088 23.0122 8.58615 23.0122 8.64416C22.8953 8.61515 22.7491 8.58615 22.6321 8.58615C22.4567 8.55714 22.2812 8.52813 22.1058 8.49913C22.0765 8.49913 22.0473 8.49913 22.0181 8.49913C21.8719 8.47012 21.7257 8.47012 21.5502 8.44112C21.521 8.44112 21.521 8.44112 21.4917 8.44112C21.3163 8.44112 21.1701 8.41211 20.9947 8.41211C20.79 8.41211 20.5853 8.41211 20.4099 8.41211V33.9378C20.3806 37.2445 17.6321 40.0001 14.2402 40.0001Z" fill="#193D84"/>
<path d="M50.2052 10.6454H32.3688C31.9887 10.6454 31.6963 10.3553 31.6963 9.97825V9.25309C31.6963 8.876 31.9887 8.58594 32.3688 8.58594H50.2052C50.5853 8.58594 50.8777 8.876 50.8777 9.25309V9.97825C50.8777 10.3263 50.5853 10.6454 50.2052 10.6454Z" fill="#E8DBBA"/>
<path d="M30.1172 10.6458H27.2809C26.9008 10.6458 26.6084 10.3558 26.6084 9.97869V7.54215C26.6084 7.16506 26.9008 6.875 27.2809 6.875H30.1172C30.4973 6.875 30.7897 7.16506 30.7897 7.54215V9.94968C30.7897 10.3268 30.4973 10.6458 30.1172 10.6458Z" fill="#E8DBBA"/>
<path d="M50.205 14.4745H27.2809C26.9008 14.4745 26.6084 14.1844 26.6084 13.8073V13.0822C26.6084 12.7051 26.9008 12.415 27.2809 12.415H50.205C50.5851 12.415 50.8775 12.7051 50.8775 13.0822V13.8073C50.8775 14.1844 50.5851 14.4745 50.205 14.4745Z" fill="#E8DBBA"/>
<path d="M50.205 18.3319H27.2809C26.9008 18.3319 26.6084 18.0419 26.6084 17.6648V16.9396C26.6084 16.5625 26.9008 16.2725 27.2809 16.2725H50.205C50.5851 16.2725 50.8775 16.5625 50.8775 16.9396V17.6648C50.8775 18.0128 50.5851 18.3319 50.205 18.3319Z" fill="#E8DBBA"/>
<path d="M50.205 22.161H27.2809C26.9008 22.161 26.6084 21.871 26.6084 21.4939V20.7687C26.6084 20.3916 26.9008 20.1016 27.2809 20.1016H50.205C50.5851 20.1016 50.8775 20.3916 50.8775 20.7687V21.4939C50.8775 21.871 50.5851 22.161 50.205 22.161Z" fill="#E8DBBA"/>
<path d="M50.205 26.0184H27.2809C26.9008 26.0184 26.6084 25.7284 26.6084 25.3513V24.6261C26.6084 24.249 26.9008 23.959 27.2809 23.959H50.205C50.5851 23.959 50.8775 24.249 50.8775 24.6261V25.3513C50.8775 25.6994 50.5851 26.0184 50.205 26.0184Z" fill="#E8DBBA"/>
<path d="M50.205 29.8475H27.2809C26.9008 29.8475 26.6084 29.5575 26.6084 29.1804V28.4552C26.6084 28.0781 26.9008 27.7881 27.2809 27.7881H50.205C50.5851 27.7881 50.8775 28.0781 50.8775 28.4552V29.1804C50.8775 29.5575 50.5851 29.8475 50.205 29.8475Z" fill="#E8DBBA"/>
<path d="M41.5792 33.705H27.2809C26.9008 33.705 26.6084 33.4149 26.6084 33.0378V32.3127C26.6084 31.9356 26.9008 31.6455 27.2809 31.6455H41.5792C41.9594 31.6455 42.2518 31.9356 42.2518 32.3127V33.0378C42.2518 33.3859 41.9301 33.705 41.5792 33.705Z" fill="#E8DBBA"/>
<path d="M50.059 5.45316V0.580078H46.2578V6.20733L48.0122 5.6272L49.7666 6.20733L50.059 5.80124V5.45316Z" fill="#EEE2D2"/>
<path d="M50.0596 5.80129L48.3052 5.22116L46.5508 5.80129V0H50.0596V5.80129Z" fill="#2649B6"/>
<path d="M46.5502 0L46.2578 0.580129H46.5502V0Z" fill="#193D84"/>
<defs>
<linearGradient id="paint0_linear" x1="52.5309" y1="0.412327" x2="22.0394" y2="40.09" gradientUnits="userSpaceOnUse">
<stop stop-color="#FCF8E3"/>
<stop offset="0.878437" stop-color="#FCE9D2"/>
</linearGradient>
</defs>
</svg>
