<?xml version="1.0" encoding="utf-8"?>
<!-- Generator: Adobe Illustrator 24.0.1, SVG Export Plug-In . SVG Version: 6.00 Build 0)  -->
<svg version="1.1" id="Layer_1" xmlns="http://www.w3.org/2000/svg" xmlns:xlink="http://www.w3.org/1999/xlink" x="0px" y="0px"
	 viewBox="0 0 24 24" style="enable-background:new 0 0 24 24;" xml:space="preserve">
<style type="text/css">
	.st0{fill:#6CA955;}
	.st1{fill:#5B8F48;}
	.st2{fill:#FFE07D;}
	.st3{fill:#5055A0;}
	.st4{fill:#FFFFFF;}
</style>
<path class="st0" d="M23.2,4.5H0.8L0.4,5v13.4c0,0.4,0.3,0.8,0.8,0.8h22.4l0.5-0.3V5.2C24,4.8,23.7,4.5,23.2,4.5L23.2,4.5z"/>
<path class="st1" d="M0.8,16.5v-12C0.3,4.5,0,4.8,0,5.2v13.5c0,0.4,0.3,0.8,0.8,0.8h22.5c0.4,0,0.8-0.3,0.8-0.8H3.1
	C1.8,18.8,0.8,17.7,0.8,16.5z"/>
<path class="st2" d="M20.6,11.8L12.4,7c-0.2-0.1-0.6-0.1-0.8,0l-8.2,4.9c-0.1,0.1-0.1,0.2,0,0.3l8.2,4.9c0.2,0.1,0.6,0.1,0.8,0
	l8.2-4.9C20.8,12.1,20.8,11.9,20.6,11.8L20.6,11.8z"/>
<path class="st3" d="M12,9c-1.2,0-2.2,0.6-2.7,1.5L9,11.3c-0.1,0.2-0.1,0.5-0.1,0.7c0,1.7,1.4,3,3.1,3c1.4,0,2.6-0.9,3-2.1l0.1-0.8
	c0,0,0,0,0-0.1C15.1,10.3,13.7,9,12,9L12,9z"/>
<path class="st4" d="M9,11.3c2.2,0,4.2,0.6,6,1.6c0.1-0.3,0.1-0.5,0.1-0.8c-1.7-1-3.7-1.5-5.8-1.6C9.2,10.7,9.1,11,9,11.3L9,11.3z"
	/>
</svg>
