<?xml version="1.0" encoding="UTF-8"?>
<svg width="64px" height="64px" viewBox="0 0 64 64" version="1.1" xmlns="http://www.w3.org/2000/svg" xmlns:xlink="http://www.w3.org/1999/xlink">
    <!-- Generator: Sketch 51.1 (57501) - http://www.bohemiancoding.com/sketch -->
    <title>ic-serach</title>
    <desc>Created with Sketch.</desc>
    <defs></defs>
    <g id="Page-1" stroke="none" stroke-width="1" fill="none" fill-rule="evenodd">
        <g id="ic-serach" fill-rule="nonzero">
            <circle id="Oval" fill="#5A3574" cx="32" cy="32" r="32"></circle>
            <g id="Group" opacity="0.2" transform="translate(33.000000, 35.000000)" fill="#231F20">
                <g id="Shape">
                    <path d="M15,17.5 C14.36,17.5 13.72,17.256 13.232,16.768 L1.232,4.768 C0.255,3.791 0.255,2.209 1.232,1.233 C2.208,0.256 3.792,0.256 4.767,1.233 L16.767,13.233 C17.744,14.21 17.744,15.792 16.767,16.768 C16.28,17.256 15.64,17.5 15,17.5 Z"></path>
                </g>
            </g>
            <path d="M48,50.5 C47.36,50.5 46.72,50.256 46.232,49.768 L34.232,37.768 C33.255,36.791 33.255,35.209 34.232,34.233 C35.208,33.256 36.792,33.256 37.767,34.233 L49.767,46.233 C50.744,47.21 50.744,48.792 49.767,49.768 C49.28,50.256 48.64,50.5 48,50.5 Z" id="Shape" fill="#4F5D73"></path>
            <circle id="Oval" fill="#BA5F5B" transform="translate(28.385581, 28.386000) rotate(-45.000000) translate(-28.385581, -28.386000) " cx="28.3855812" cy="28.386" r="10.5668987"></circle>
            <g id="Group" opacity="0.2" transform="translate(13.000000, 15.000000)" fill="#231F20">
                <g id="Shape">
                    <path d="M15.386,4.819 C18.09,4.819 20.795,5.851 22.858,7.914 C26.985,12.041 26.985,18.731 22.858,22.858 C20.795,24.921 18.09,25.953 15.386,25.953 C12.682,25.953 9.977,24.921 7.914,22.858 C3.787,18.731 3.787,12.041 7.914,7.914 C9.977,5.851 12.682,4.819 15.386,4.819 Z M15.386,0.819 C11.495,0.819 7.837,2.334 5.086,5.086 C-0.594,10.766 -0.594,20.007 5.086,25.687 C7.837,28.438 11.495,29.954 15.386,29.954 C19.277,29.954 22.935,28.439 25.686,25.687 C31.366,20.007 31.366,10.766 25.686,5.086 C22.935,2.334 19.277,0.819 15.386,0.819 Z"></path>
                </g>
            </g>
            <path d="M28.386,17.819 C31.09,17.819 33.795,18.851 35.858,20.914 C39.985,25.041 39.985,31.731 35.858,35.858 C33.795,37.921 31.09,38.953 28.386,38.953 C25.682,38.953 22.977,37.921 20.914,35.858 C16.787,31.731 16.787,25.041 20.914,20.914 C22.977,18.851 25.682,17.819 28.386,17.819 Z M28.386,13.819 C24.495,13.819 20.837,15.334 18.086,18.086 C12.406,23.766 12.406,33.007 18.086,38.687 C20.837,41.438 24.495,42.954 28.386,42.954 C32.277,42.954 35.935,41.439 38.686,38.687 C44.366,33.007 44.366,23.766 38.686,18.086 C35.935,15.334 32.277,13.819 28.386,13.819 Z" id="Shape" fill="#FFFFFF"></path>
        </g>
    </g>
</svg>